<?xml version="1.0" encoding="utf-8"?>
<!-- Generator: Adobe Illustrator 16.0.4, SVG Export Plug-In . SVG Version: 6.00 Build 0)  -->
<!DOCTYPE svg PUBLIC "-//W3C//DTD SVG 1.1//EN" "http://www.w3.org/Graphics/SVG/1.1/DTD/svg11.dtd">
<svg version="1.1" id="Layer_1" xmlns="http://www.w3.org/2000/svg" xmlns:xlink="http://www.w3.org/1999/xlink" x="0px" y="0px"
	 width="184.543px" height="77.404px" viewBox="0 0 184.543 77.404" enable-background="new 0 0 184.543 77.404"
	 xml:space="preserve">
<g>
	<g>
		<polygon fill="#231F20" points="32.199,57.737 42.693,57.737 42.693,33.017 58.676,33.017 58.676,24.015 42.694,24.015 
			42.694,10.855 61.847,10.855 63.436,1.639 32.2,1.639 		"/>
		<path fill="#231F20" d="M149.723,1.819c-1.709,5.25-3.429,10.494-5.149,15.737c-2.267,6.897-4.519,13.803-6.859,20.679
			c-0.237,0.69-0.467,1.395-0.741,2.075c-0.777-2.633-1.634-5.248-2.468-7.861l-9.921-30.631h-11.307l18.156,55.989h9.99
			l19.312-55.988H149.723z"/>
		<g>
			<path fill="#231F20" d="M109.016,43.356c0-6.069,0-22.843,0-29.021S105.57,0,92.348,0C79.127,0,68.922,7.575,68.922,7.575
				l4.778,7.343c0,0,7.651-6.294,15.62-6.295c7.968,0.001,9.442,3.838,9.442,6.876c-0.002,3.039,0.115,7.461,0.115,7.461
				s-2.447-0.584-8.858-0.118c-13.393,0.976-23.078,8.006-23.078,19.465c0,11.46,8.509,16.9,17.949,16.9
				c9.441,0,15.734-7.576,15.734-7.576s0.467,2.449,3.03,4.896c2.563,2.447,4.312,2.798,4.312,2.798l5.127-6.645
				C113.094,52.68,109.016,49.427,109.016,43.356z M98.643,44.057c0,0-4.545,7.11-11.889,7.108c-7.343,0.001-8.974-6.398-8.74-9.906
				c0.294-4.442,3.147-10.257,11.305-11.071c8.158-0.816,9.556-0.001,9.556-0.001L98.643,44.057z"/>
		</g>
	</g>
	<path fill="#231F20" d="M1.07,71.63h2.559c0.144,0,0.169-0.026,0.169-0.17v-0.574c0-0.144-0.026-0.17-0.169-0.17H1.07v-2.897h2.898
		c0.065,0,0.091,0,0.13-0.025c0.052-0.039,0.052-0.065,0.065-0.091l0.183-0.549l0.039-0.156c0-0.053-0.026-0.092-0.169-0.092h-4.06
		C0.052,66.904,0,66.957,0,67.062v8.628c0,0.104,0.052,0.158,0.157,0.158h0.731c0.144,0,0.183-0.028,0.183-0.185L1.07,71.63
		L1.07,71.63z M8.771,72.27h-2.18l0.796-2.885c0.091-0.353,0.222-0.927,0.274-1.24h0.026c0.065,0.365,0.196,0.836,0.301,1.24
		L8.771,72.27L8.771,72.27z M8.289,67.048c-0.052-0.145-0.091-0.145-0.196-0.145h-0.77c-0.144,0-0.157,0.015-0.196,0.145
		l-2.611,8.498c-0.039,0.092-0.052,0.156-0.065,0.222c0,0.065,0.052,0.08,0.183,0.08h0.809c0.157,0,0.209-0.054,0.235-0.146
		l0.666-2.52H9.02l0.731,2.52c0.026,0.092,0.078,0.146,0.235,0.146h0.81c0.13,0,0.183-0.015,0.183-0.08
		c-0.013-0.064-0.039-0.13-0.065-0.222L8.289,67.048L8.289,67.048z M16.525,74.488c-0.039-0.038-0.091-0.104-0.13-0.104
		c-0.092,0-0.822,0.771-1.58,0.771c-1.331,0-1.854-1.578-1.854-3.993c0-2.22,0.353-3.563,1.762-3.563
		c0.757,0,1.488,0.771,1.579,0.771c0.053,0,0.092-0.053,0.131-0.104l0.274-0.353c0.052-0.065,0.078-0.118,0.078-0.185
		c0-0.208-0.939-1.005-2.088-1.005c-2.271,0-2.911,2.089-2.911,4.568c0,2.702,0.783,4.741,3.002,4.741
		c1.148,0,2.088-0.8,2.088-1.009c0-0.064-0.026-0.116-0.078-0.183L16.525,74.488L16.525,74.488z M23.809,67.062
		c0-0.104-0.052-0.156-0.157-0.156h-0.757c-0.104,0-0.157,0.053-0.157,0.156v6.356c0,1.188-0.587,1.735-1.788,1.735
		c-1.227,0-1.645-0.666-1.645-1.735v-6.356c0-0.104-0.052-0.156-0.156-0.156h-0.757c-0.104,0-0.157,0.053-0.157,0.156v6.383
		c0,1.579,0.731,2.588,2.702,2.588c1.997,0,2.872-1.021,2.872-2.588V67.062L23.809,67.062z M27.176,74.933v-7.871
		c0-0.104-0.052-0.156-0.157-0.156h-0.757c-0.104,0-0.157,0.053-0.157,0.156v8.628c0,0.104,0.052,0.156,0.157,0.156h3.942
		c0.091,0,0.17-0.039,0.209-0.144l0.183-0.496c0.013-0.064,0.052-0.117,0.052-0.17c0-0.078-0.065-0.104-0.156-0.104L27.176,74.933
		L27.176,74.933z M33.024,74.933v-7.114h0.718c1.527,0,2.349,0.562,2.349,3.421c0,2.231-0.391,3.693-2.258,3.693H33.024
		L33.024,74.933z M32.11,66.904c-0.104,0-0.157,0.054-0.157,0.157v8.628c0,0.104,0.052,0.156,0.157,0.156h1.501
		c2.663,0,3.655-1.448,3.655-4.556c0-3.955-1.697-4.387-3.511-4.387L32.11,66.904L32.11,66.904z M42.396,72.27h-2.18l0.796-2.885
		c0.091-0.353,0.222-0.927,0.274-1.24h0.026c0.065,0.365,0.196,0.836,0.3,1.24L42.396,72.27L42.396,72.27z M41.913,67.048
		c-0.052-0.145-0.091-0.145-0.196-0.145h-0.771c-0.143,0-0.156,0.015-0.195,0.145l-2.611,8.498
		c-0.039,0.092-0.052,0.156-0.065,0.222c0,0.065,0.052,0.08,0.183,0.08h0.809c0.157,0,0.209-0.054,0.235-0.146l0.666-2.52h2.675
		l0.731,2.52c0.026,0.092,0.078,0.146,0.235,0.146h0.809c0.13,0,0.183-0.015,0.183-0.08c-0.013-0.064-0.039-0.13-0.065-0.222
		L41.913,67.048L41.913,67.048z M47.304,74.933v-7.114h0.718c1.527,0,2.349,0.562,2.349,3.421c0,2.231-0.391,3.693-2.258,3.693
		H47.304L47.304,74.933z M46.39,66.904c-0.104,0-0.157,0.054-0.157,0.157v8.628c0,0.104,0.052,0.156,0.157,0.156h1.501
		c2.663,0,3.655-1.448,3.655-4.556c0-3.955-1.697-4.387-3.511-4.387L46.39,66.904L46.39,66.904z M57.825,75.075
		c0-0.092-0.052-0.144-0.157-0.144h-3.133V71.63h2.559c0.144,0,0.169-0.026,0.169-0.17v-0.574c0-0.144-0.026-0.17-0.169-0.17h-2.559
		v-2.897h2.898c0.117,0,0.157,0,0.195-0.116l0.183-0.549c0.013-0.053,0.039-0.131,0.039-0.171c0-0.038-0.026-0.077-0.169-0.077
		h-4.06c-0.104,0-0.157,0.053-0.157,0.156v8.628c0,0.104,0.052,0.156,0.157,0.156h4.021c0.143,0,0.183-0.026,0.183-0.183V75.075
		L57.825,75.075z M64.469,74.933v-7.114h0.718c1.527,0,2.35,0.562,2.35,3.421c0,2.231-0.392,3.693-2.258,3.693H64.469L64.469,74.933
		z M63.555,66.904c-0.104,0-0.156,0.054-0.156,0.157v8.628c0,0.104,0.052,0.156,0.156,0.156h1.501c2.663,0,3.654-1.448,3.654-4.556
		c0-3.955-1.697-4.387-3.511-4.387L63.555,66.904L63.555,66.904z M74.989,75.075c0-0.092-0.052-0.144-0.157-0.144H71.7V71.63h2.559
		c0.144,0,0.169-0.026,0.169-0.17v-0.574c0-0.144-0.026-0.17-0.169-0.17H71.7v-2.897h2.898c0.117,0,0.157,0,0.195-0.116l0.183-0.549
		c0.013-0.053,0.04-0.131,0.04-0.171c0-0.038-0.026-0.077-0.17-0.077h-4.06c-0.104,0-0.156,0.053-0.156,0.156v8.628
		c0,0.104,0.052,0.156,0.156,0.156h4.021c0.144,0,0.183-0.026,0.183-0.183v-0.588H74.989z M83.983,72.27h-2.18l0.796-2.885
		c0.091-0.353,0.222-0.927,0.274-1.24h0.026c0.065,0.365,0.196,0.836,0.3,1.24L83.983,72.27L83.983,72.27z M83.5,67.048
		c-0.052-0.145-0.091-0.145-0.196-0.145h-0.77c-0.144,0-0.156,0.015-0.195,0.145l-2.611,8.498c-0.039,0.092-0.052,0.156-0.065,0.222
		c0,0.065,0.052,0.08,0.183,0.08h0.81c0.157,0,0.209-0.054,0.235-0.146l0.666-2.52h2.675l0.731,2.52
		c0.026,0.092,0.079,0.146,0.235,0.146h0.809c0.13,0,0.183-0.015,0.183-0.08c-0.013-0.064-0.04-0.13-0.065-0.222L83.5,67.048
		L83.5,67.048z M88.76,70.925v-3.106h1.005c0.744,0,1.684,0.039,1.684,1.488c0,1.396-0.875,1.618-1.84,1.618H88.76L88.76,70.925z
		 M90.796,71.682c0.718-0.233,1.723-0.966,1.723-2.4c0-2.312-1.645-2.376-2.65-2.376h-2.023c-0.105,0-0.157,0.053-0.157,0.156v8.628
		c0,0.104,0.052,0.158,0.157,0.158h0.757c0.104,0,0.157-0.054,0.157-0.158v-3.916h0.94l2.153,4.153
		c0.04,0.091,0.104,0.117,0.196,0.104l0.822-0.157c0.092-0.014,0.145-0.056,0.145-0.095c0-0.038-0.027-0.091-0.053-0.143
		L90.796,71.682L90.796,71.682z M98.641,67.818c0.092,0,0.17-0.039,0.209-0.144l0.184-0.496c0.013-0.065,0.052-0.117,0.052-0.17
		c0-0.078-0.063-0.104-0.155-0.104h-5.117c-0.144,0-0.183,0.078-0.183,0.171v0.588c0,0.104,0.052,0.155,0.156,0.155h1.944v7.871
		c0,0.104,0.053,0.158,0.156,0.158h0.758c0.104,0,0.156-0.054,0.156-0.158v-7.871H98.641L98.641,67.818z M104.725,75.075
		c0-0.092-0.054-0.144-0.158-0.144h-3.133V71.63h2.56c0.146,0,0.17-0.026,0.17-0.17v-0.574c0-0.144-0.024-0.17-0.17-0.17h-2.56
		v-2.897h2.898c0.117,0,0.156,0,0.195-0.116l0.184-0.549c0.014-0.053,0.039-0.131,0.039-0.171c0-0.038-0.025-0.077-0.17-0.077
		h-4.061c-0.104,0-0.156,0.053-0.156,0.156v8.628c0,0.104,0.053,0.156,0.156,0.156h4.021c0.144,0,0.183-0.026,0.183-0.183v-0.588
		H104.725z M110.454,67.583c0.014-0.052,0.053-0.117,0.053-0.156s-0.039-0.104-0.104-0.144c-0.182-0.093-1.019-0.562-2.062-0.562
		c-1.356,0-2.598,0.836-2.598,2.337c0,2.702,3.812,2.375,3.812,4.542c0,0.875-0.574,1.488-1.554,1.488
		c-0.914,0-1.71-0.431-1.972-0.549c-0.065-0.038-0.131-0.064-0.184-0.064c-0.078,0-0.104,0.064-0.143,0.17l-0.17,0.431
		c-0.014,0.053-0.053,0.117-0.053,0.156c0,0.065,0.039,0.117,0.104,0.145c0.195,0.092,1.162,0.655,2.376,0.655
		c1.592,0,2.769-0.97,2.769-2.562c0-0.862-0.354-1.476-1.06-2.05c-1.043-0.861-2.754-1.109-2.754-2.479
		c0-0.875,0.603-1.278,1.384-1.278c0.745,0,1.41,0.325,1.657,0.456c0.065,0.04,0.131,0.064,0.185,0.064
		c0.092,0,0.092-0.064,0.144-0.17L110.454,67.583L110.454,67.583z M121.262,67.271c0.014-0.053,0.039-0.117,0.039-0.144
		c0-0.079-0.117-0.104-0.156-0.118l-0.719-0.183c-0.039-0.014-0.078-0.014-0.117-0.014c-0.063,0-0.078,0.078-0.117,0.209
		l-1.657,6.839c-0.052,0.196-0.156,0.692-0.195,1.02h-0.026c-0.037-0.34-0.117-0.796-0.183-1.044l-1.646-6.813
		c-0.024-0.131-0.053-0.209-0.116-0.209c-0.039,0-0.078,0-0.117,0.014l-0.719,0.183c-0.039,0.014-0.156,0.026-0.156,0.104
		c0,0.039,0.024,0.104,0.039,0.156l2.258,8.523c0.026,0.119,0.054,0.146,0.196,0.146h0.913c0.131,0,0.157-0.013,0.196-0.146
		L121.262,67.271L121.262,67.271z M125.896,75.154c0-0.104-0.053-0.156-0.157-0.156h-1.188v-7.244h1.188
		c0.104,0,0.157-0.052,0.157-0.156v-0.535c0-0.104-0.053-0.156-0.157-0.156h-3.445c-0.104,0-0.155,0.053-0.155,0.156v0.535
		c0,0.104,0.051,0.156,0.155,0.156h1.188v7.244h-1.188c-0.104,0-0.155,0.053-0.155,0.156v0.535c0,0.104,0.051,0.156,0.155,0.156
		h3.445c0.104,0,0.157-0.052,0.157-0.156V75.154L125.896,75.154z M131.482,67.583c0.014-0.052,0.053-0.117,0.053-0.156
		s-0.039-0.104-0.104-0.144c-0.184-0.093-1.019-0.562-2.062-0.562c-1.357,0-2.598,0.836-2.598,2.337
		c0,2.702,3.812,2.375,3.812,4.542c0,0.875-0.574,1.488-1.556,1.488c-0.912,0-1.709-0.431-1.971-0.549
		c-0.063-0.038-0.129-0.064-0.182-0.064c-0.079,0-0.105,0.064-0.145,0.17l-0.17,0.431c-0.013,0.053-0.053,0.117-0.053,0.156
		c0,0.065,0.04,0.117,0.104,0.145c0.195,0.092,1.162,0.655,2.377,0.655c1.593,0,2.767-0.97,2.767-2.562
		c0-0.862-0.353-1.476-1.057-2.05c-1.046-0.861-2.755-1.109-2.755-2.479c0-0.875,0.601-1.278,1.384-1.278
		c0.743,0,1.409,0.325,1.657,0.456c0.064,0.04,0.132,0.064,0.184,0.064c0.091,0,0.091-0.064,0.145-0.17L131.482,67.583
		L131.482,67.583z M138.896,67.062c0-0.104-0.053-0.156-0.155-0.156h-0.759c-0.104,0-0.155,0.053-0.155,0.156v6.356
		c0,1.188-0.589,1.735-1.789,1.735c-1.228,0-1.646-0.666-1.646-1.735v-6.356c0-0.104-0.052-0.156-0.156-0.156h-0.756
		c-0.104,0-0.158,0.053-0.158,0.156v6.383c0,1.579,0.732,2.588,2.703,2.588c1.996,0,2.871-1.021,2.871-2.588V67.062L138.896,67.062z
		 M144.195,72.27h-2.18l0.797-2.885c0.092-0.353,0.223-0.927,0.273-1.24h0.025c0.065,0.365,0.197,0.836,0.301,1.24L144.195,72.27
		L144.195,72.27z M143.713,67.048c-0.053-0.145-0.092-0.145-0.195-0.145h-0.771c-0.144,0-0.156,0.015-0.195,0.145l-2.61,8.498
		c-0.039,0.092-0.051,0.156-0.064,0.222c0,0.065,0.053,0.08,0.184,0.08h0.81c0.155,0,0.209-0.054,0.235-0.146l0.664-2.52h2.676
		l0.731,2.52c0.026,0.092,0.079,0.146,0.235,0.146h0.809c0.131,0,0.184-0.015,0.184-0.08c-0.014-0.064-0.038-0.13-0.065-0.222
		L143.713,67.048L143.713,67.048z M151.062,75.154c0-0.104-0.053-0.156-0.156-0.156h-1.188v-7.244h1.188
		c0.104,0,0.156-0.052,0.156-0.156v-0.535c0-0.104-0.053-0.156-0.156-0.156h-3.446c-0.104,0-0.155,0.053-0.155,0.156v0.535
		c0,0.104,0.051,0.156,0.155,0.156h1.188v7.244h-1.188c-0.104,0-0.155,0.053-0.155,0.156v0.535c0,0.104,0.051,0.156,0.155,0.156
		h3.446c0.104,0,0.156-0.052,0.156-0.156V75.154L151.062,75.154z M156.648,67.583c0.014-0.052,0.054-0.117,0.054-0.156
		s-0.04-0.104-0.104-0.144c-0.184-0.093-1.019-0.562-2.062-0.562c-1.357,0-2.598,0.836-2.598,2.337c0,2.702,3.812,2.375,3.812,4.542
		c0,0.875-0.574,1.488-1.554,1.488c-0.913,0-1.711-0.431-1.971-0.549c-0.065-0.038-0.132-0.064-0.184-0.064
		c-0.078,0-0.105,0.064-0.145,0.17l-0.17,0.431c-0.013,0.053-0.052,0.117-0.052,0.156c0,0.065,0.039,0.117,0.104,0.145
		c0.195,0.092,1.162,0.655,2.375,0.655c1.594,0,2.768-0.97,2.768-2.562c0-0.862-0.352-1.476-1.057-2.05
		c-1.045-0.861-2.754-1.109-2.754-2.479c0-0.875,0.6-1.278,1.383-1.278c0.744,0,1.41,0.325,1.658,0.456
		c0.064,0.04,0.131,0.064,0.183,0.064c0.092,0,0.092-0.064,0.144-0.17L156.648,67.583L156.648,67.583z M171.791,67.062
		c0-0.104-0.053-0.156-0.157-0.156h-0.757c-0.104,0-0.156,0.053-0.156,0.156v6.356c0,1.188-0.588,1.735-1.787,1.735
		c-1.229,0-1.646-0.666-1.646-1.735v-6.356c0-0.104-0.053-0.156-0.156-0.156h-0.757c-0.104,0-0.156,0.053-0.156,0.156v6.383
		c0,1.579,0.729,2.588,2.701,2.588c1.997,0,2.872-1.021,2.872-2.588V67.062L171.791,67.062z M175.184,71.63h2.56
		c0.144,0,0.17-0.026,0.17-0.17v-0.574c0-0.144-0.026-0.17-0.17-0.17h-2.56v-2.897h2.897c0.065,0,0.092,0,0.131-0.025
		c0.052-0.039,0.052-0.065,0.065-0.091l0.183-0.549l0.039-0.156c0-0.053-0.026-0.092-0.169-0.092h-4.061
		c-0.104,0-0.156,0.053-0.156,0.156v8.628c0,0.104,0.053,0.158,0.156,0.158H175c0.145,0,0.184-0.028,0.184-0.185V71.63
		L175.184,71.63z M184.543,71.473c0-0.104-0.053-0.156-0.156-0.156h-1.959c-0.104,0-0.156,0.054-0.156,0.156v0.536
		c0,0.104,0.054,0.156,0.156,0.156h1.045v2.741c-0.248,0.116-0.602,0.247-1.201,0.247c-1.422,0-1.983-1.578-1.983-3.993
		c0-2.206,0.573-3.563,2.01-3.563c1.045,0,1.58,0.64,1.711,0.64c0.064,0,0.132-0.092,0.171-0.183l0.194-0.366
		c0.039-0.078,0.063-0.117,0.063-0.169c0-0.184-0.965-0.797-2.166-0.797c-2.297,0-3.158,2.089-3.158,4.568
		c0,2.702,0.822,4.741,3.133,4.741c0.796,0,1.632-0.213,2.113-0.485c0.185-0.104,0.185-0.209,0.185-0.549L184.543,71.473
		L184.543,71.473z"/>
	<polygon fill="#231F20" points="161.838,65.315 161.292,65.315 161.292,77.405 161.838,77.405 	"/>
</g>
</svg>
