<?xml version="1.0" encoding="utf-8"?>
<!-- Generator: Adobe Illustrator 16.0.4, SVG Export Plug-In . SVG Version: 6.00 Build 0)  -->
<!DOCTYPE svg PUBLIC "-//W3C//DTD SVG 1.1//EN" "http://www.w3.org/Graphics/SVG/1.1/DTD/svg11.dtd">
<svg version="1.1" id="Layer_1" xmlns="http://www.w3.org/2000/svg" xmlns:xlink="http://www.w3.org/1999/xlink" x="0px" y="0px"
	 width="407.389px" height="108.264px" viewBox="-196.584 0 407.389 108.264" enable-background="new -196.584 0 407.389 108.264"
	 xml:space="preserve">
<g>
	<g>
		<polygon fill="#007DC4" points="16.684,40.746 25.025,45.568 33.367,50.389 33.367,60.031 33.367,69.671 25.025,74.494 
			16.684,79.314 8.342,74.494 0,69.671 0,60.031 0,50.389 8.342,45.568 		"/>
		<polygon fill="#007DC4" points="73.507,69.662 81.856,74.487 90.208,79.312 90.208,88.963 90.208,98.612 81.856,103.438 
			73.507,108.264 65.155,103.438 56.803,98.612 56.803,88.963 56.803,79.312 65.155,74.487 		"/>
		<polygon fill="#007DC4" points="73.165,0 83.191,5.785 93.218,11.569 93.218,23.139 93.218,34.707 83.191,40.491 73.165,46.275 
			63.137,40.491 53.11,34.707 53.11,23.139 53.11,11.569 63.137,5.785 		"/>
		<polygon fill="#007DC4" points="86.897,42.699 93.591,46.549 100.287,50.4 100.287,58.104 100.287,65.804 93.591,69.656 
			86.897,73.507 80.202,69.656 73.507,65.804 73.507,58.104 73.507,50.4 80.202,46.549 		"/>
		<polygon fill="#007DC4" points="43.449,75.497 48.476,78.382 53.502,81.268 53.502,87.038 53.502,92.812 48.476,95.696 
			43.449,98.583 38.423,95.696 33.396,92.812 33.396,87.038 33.396,81.268 38.423,78.382 		"/>
		<polygon fill="#007DC4" points="33.399,15.684 40.074,19.537 46.749,23.388 46.749,31.093 46.749,38.795 40.074,42.647 
			33.399,46.499 26.725,42.647 20.05,38.795 20.05,31.093 20.05,23.388 26.725,19.537 		"/>
	</g>
	<path fill="#231F20" d="M111.877,21.906v19.13c0.008,3.621,0.551,6.598,1.627,8.913c1.078,2.322,2.629,4.044,4.666,5.154
		c2.034,1.111,4.501,1.662,7.394,1.654c2.993,0,5.556-0.561,7.69-1.696c2.129-1.137,3.758-2.857,4.893-5.173
		c1.129-2.307,1.705-5.224,1.715-8.752v-19.23h-7.734v19.689c-0.008,3.044-0.551,5.3-1.627,6.767
		c-1.077,1.469-2.639,2.196-4.683,2.188c-1.976,0-3.492-0.745-4.569-2.246c-1.077-1.492-1.62-3.73-1.639-6.708V21.906H111.877
		L111.877,21.906z M151.342,56.198h7.734V42.411h12.312v-6.311h-12.312v-7.835h13.179v-6.358h-20.913V56.198L151.342,56.198z
		 M210.449,36.609h-12.771v6.056h5.291v7.175c-0.313,0.136-0.805,0.237-1.458,0.322c-0.661,0.085-1.433,0.136-2.306,0.136
		c-1.597,0-3.055-0.254-4.377-0.746c-1.322-0.501-2.469-1.229-3.426-2.188c-0.967-0.956-1.714-2.13-2.238-3.52
		c-0.525-1.382-0.79-2.958-0.797-4.74c0.007-1.866,0.296-3.493,0.873-4.884c0.566-1.398,1.375-2.561,2.399-3.485
		c1.034-0.926,2.238-1.619,3.62-2.087c1.374-0.457,2.884-0.685,4.503-0.685c1.246,0,2.357,0.066,3.315,0.186
		c0.958,0.127,1.814,0.305,2.562,0.525c0.754,0.221,1.441,0.475,2.062,0.771l1.629-6.317c-0.562-0.248-1.307-0.483-2.23-0.73
		c-0.925-0.235-1.993-0.439-3.224-0.602c-1.229-0.153-2.577-0.237-4.062-0.246c-2.823,0-5.426,0.398-7.793,1.195
		c-2.373,0.797-4.442,1.959-6.197,3.492c-1.756,1.535-3.121,3.41-4.098,5.632c-0.976,2.23-1.475,4.773-1.5,7.641
		c0,1.678,0.188,3.281,0.567,4.799c0.374,1.52,0.917,2.926,1.637,4.225c0.712,1.287,1.595,2.44,2.63,3.442
		c1.568,1.5,3.502,2.646,5.809,3.417c2.3,0.771,5.012,1.161,8.132,1.161c1.525-0.009,3.012-0.118,4.452-0.323
		c1.441-0.202,2.765-0.447,3.97-0.746c1.212-0.295,2.221-0.584,3.027-0.863V36.609L210.449,36.609z"/>
	<g>
		<path fill="#231F20" d="M111.805,67.832v4.334c0,2.468,1.142,3.564,3.103,3.564c2.027,0,3.239-1.144,3.239-3.543v-4.355h-1.754
			v4.462c0,1.383-0.507,2.027-1.43,2.027c-0.887,0-1.406-0.681-1.406-2.027v-4.462H111.805L111.805,67.832z M123.225,75.603v-2.341
			c0-1.268-0.022-2.364-0.081-3.401h0.046c0.369,0.911,0.89,1.903,1.351,2.744l1.66,2.998h1.845v-7.771h-1.614v2.259
			c0,1.178,0.034,2.226,0.139,3.251h-0.022c-0.357-0.876-0.807-1.843-1.269-2.662l-1.613-2.848h-2.054v7.771H123.225L123.225,75.603
			z M131.521,67.832v7.771h1.752v-7.771H131.521L131.521,67.832z M140.623,75.603l2.617-7.771h-1.867l-0.992,3.32
			c-0.266,0.887-0.508,1.81-0.703,2.742h-0.034c-0.184-0.969-0.427-1.844-0.691-2.776l-0.946-3.286h-1.923l2.487,7.771H140.623
			L140.623,75.603z M150.636,70.888h-2.858v-1.615h3.033v-1.439h-4.785v7.771h4.945V74.16h-3.193v-1.845h2.858V70.888
			L150.636,70.888z M154.113,75.603h1.741v-3.067h0.52c0.727,0.014,1.06,0.266,1.278,1.25c0.22,0.96,0.415,1.6,0.53,1.817h1.798
			c-0.147-0.302-0.379-1.319-0.621-2.211c-0.196-0.719-0.496-1.226-1.037-1.443v-0.034c0.668-0.243,1.371-0.922,1.371-1.896
			c0-0.711-0.254-1.251-0.727-1.619c-0.553-0.449-1.36-0.624-2.514-0.624c-0.943,0-1.774,0.069-2.341,0.175L154.113,75.603
			L154.113,75.603z M155.854,69.146c0.128-0.036,0.368-0.059,0.796-0.059c0.807,0,1.291,0.367,1.291,1.065
			c0,0.679-0.52,1.114-1.395,1.114h-0.692V69.146L155.854,69.146z M162.594,75.245c0.439,0.24,1.314,0.485,2.202,0.485
			c2.132,0,3.124-1.109,3.124-2.412c0-1.106-0.635-1.819-2.006-2.327c-1.016-0.394-1.442-0.612-1.442-1.107
			c0-0.393,0.37-0.749,1.131-0.749c0.75,0,1.315,0.22,1.614,0.369l0.392-1.407c-0.46-0.218-1.095-0.392-1.982-0.392
			c-1.82,0-2.939,1.003-2.939,2.328c0,1.142,0.854,1.855,2.146,2.316c0.932,0.322,1.302,0.611,1.302,1.083
			c0,0.521-0.427,0.854-1.233,0.854c-0.749,0-1.486-0.243-1.948-0.484L162.594,75.245L162.594,75.245z M171.074,67.832v7.771h1.752
			v-7.771H171.074L171.074,67.832z M176.291,75.567c0.427,0.06,1.084,0.117,1.995,0.117c1.521,0,2.776-0.324,3.597-1.006
			c0.736-0.634,1.279-1.658,1.279-3.146c0-1.385-0.508-2.352-1.314-2.951c-0.737-0.564-1.705-0.809-3.192-0.809
			c-0.875,0-1.719,0.06-2.363,0.175L176.291,75.567L176.291,75.567z M178.045,69.192c0.147-0.033,0.413-0.068,0.795-0.068
			c1.521,0,2.465,0.796,2.465,2.468c0,1.854-1.049,2.731-2.65,2.721c-0.206,0-0.461,0-0.608-0.035L178.045,69.192L178.045,69.192z
			 M190.294,73.606l0.599,1.996h1.894l-2.424-7.771h-2.294l-2.375,7.771h1.822l0.541-1.996H190.294L190.294,73.606z M188.311,72.294
			l0.474-1.65c0.114-0.446,0.241-1.037,0.346-1.497h0.035c0.115,0.45,0.254,1.038,0.381,1.497l0.482,1.65H188.311L188.311,72.294z
			 M195.766,75.567c0.426,0.06,1.083,0.117,1.993,0.117c1.522,0,2.779-0.324,3.597-1.006c0.738-0.634,1.281-1.658,1.281-3.146
			c0-1.385-0.508-2.352-1.313-2.951c-0.738-0.564-1.708-0.809-3.193-0.809c-0.877,0-1.719,0.06-2.363,0.175L195.766,75.567
			L195.766,75.567z M197.518,69.192c0.148-0.033,0.414-0.068,0.795-0.068c1.522,0,2.467,0.796,2.467,2.468
			c0,1.854-1.049,2.731-2.649,2.721c-0.209,0-0.463,0-0.611-0.035L197.518,69.192L197.518,69.192z M210.354,70.888h-2.857v-1.615
			h3.03v-1.439h-4.782v7.771h4.944V74.16h-3.192v-1.845h2.857V70.888z"/>
		<path fill="#231F20" d="M111.777,87.107h1.753v-3.124h2.788v-1.43h-2.788v-1.774h2.985v-1.439h-4.738V87.107L111.777,87.107z
			 M122.138,82.394h-2.859V80.78h3.03V79.34h-4.782v7.769h4.945v-1.439h-3.193v-1.846h2.859V82.394L122.138,82.394z M123.671,87.073
			c0.425,0.061,1.083,0.116,1.993,0.116c1.521,0,2.782-0.317,3.597-1.004c0.743-0.629,1.279-1.66,1.279-3.147
			c0-1.384-0.511-2.349-1.313-2.951c-0.742-0.56-1.705-0.806-3.192-0.806c-0.877,0-1.719,0.058-2.362,0.172L123.671,87.073
			L123.671,87.073z M125.422,80.699c0.149-0.036,0.416-0.07,0.797-0.07c1.521,0,2.467,0.796,2.467,2.468
			c0,1.855-1.049,2.729-2.651,2.72c-0.208-0.002-0.461,0-0.611-0.033L125.422,80.699L125.422,80.699z M136.316,82.394h-2.857V80.78
			h3.03V79.34h-4.783v7.769h4.944v-1.439h-3.191v-1.846h2.857V82.394L136.316,82.394z M137.849,87.107h1.742v-3.064h0.519
			c0.726,0,1.059,0.266,1.279,1.248c0.216,0.961,0.415,1.598,0.531,1.816h1.798c-0.149-0.302-0.38-1.318-0.624-2.209
			c-0.195-0.718-0.496-1.226-1.037-1.443v-0.035c0.668-0.242,1.372-0.92,1.372-1.896c0-0.711-0.257-1.245-0.726-1.619
			c-0.559-0.444-1.361-0.621-2.515-0.621c-0.945,0-1.774,0.067-2.341,0.172L137.849,87.107L137.849,87.107z M139.591,80.652
			c0.126-0.033,0.368-0.058,0.796-0.058c0.807,0,1.29,0.367,1.29,1.065c0,0.676-0.519,1.111-1.396,1.111h-0.69V80.652
			L139.591,80.652z M148.824,85.112l0.6,1.995h1.891l-2.421-7.769H146.6l-2.375,7.769h1.822l0.541-1.995H148.824L148.824,85.112z
			 M146.842,83.798l0.473-1.646c0.127-0.445,0.242-1.038,0.347-1.499h0.033c0.115,0.45,0.245,1.04,0.382,1.499l0.482,1.646H146.842
			L146.842,83.798z M152.248,87.107h4.842v-1.476H154v-6.293h-1.752V87.107L152.248,87.107z M160.789,87.073
			c0.427,0.061,1.084,0.116,1.995,0.116c1.521,0,2.777-0.323,3.597-1.004c0.738-0.635,1.278-1.66,1.278-3.147
			c0-1.384-0.508-2.354-1.312-2.951c-0.739-0.564-1.708-0.806-3.194-0.806c-0.875,0-1.717,0.058-2.362,0.172L160.789,87.073
			L160.789,87.073z M162.542,80.699c0.148-0.036,0.414-0.07,0.795-0.07c1.521,0,2.468,0.796,2.468,2.468
			c0,1.855-1.05,2.732-2.652,2.72c-0.207,0-0.461,0-0.609-0.033L162.542,80.699L162.542,80.699z M173.436,82.394h-2.858V80.78h3.031
			V79.34h-4.784v7.769h4.945v-1.439h-3.192v-1.846h2.858V82.394L173.436,82.394z M185.293,82.67h-2.895v1.372h1.199v1.625
			c-0.14,0.058-0.462,0.103-0.853,0.103c-1.441,0-2.457-0.928-2.457-2.535c0-1.689,1.119-2.523,2.583-2.523
			c0.853,0,1.371,0.138,1.799,0.336l0.368-1.432c-0.379-0.161-1.152-0.356-2.155-0.356c-2.548,0-4.427,1.475-4.438,4.068
			c0,1.138,0.394,2.146,1.096,2.823c0.716,0.682,1.741,1.04,3.158,1.04c1.025,0,2.053-0.256,2.595-0.438V82.67L185.293,82.67z
			 M189.973,87.235c2.271,0,3.805-1.532,3.805-4.092c0-2.146-1.303-3.933-3.688-3.933c-2.282,0-3.779,1.74-3.779,4.068
			c0,2.214,1.358,3.955,3.652,3.955L189.973,87.235L189.973,87.235z M190.031,85.84c-1.177,0-1.882-1.142-1.882-2.605
			c0-1.452,0.683-2.629,1.893-2.629s1.867,1.2,1.867,2.596c0,1.521-0.68,2.64-1.867,2.64L190.031,85.84L190.031,85.84z
			 M194.942,79.339v7.769h1.751v-7.769H194.942L194.942,79.339z M202.25,85.112l0.6,1.995h1.892l-2.423-7.769h-2.293l-2.375,7.769
			h1.821l0.542-1.995H202.25L202.25,85.112z M200.267,83.798l0.475-1.646c0.114-0.449,0.241-1.038,0.346-1.499h0.035
			c0.114,0.45,0.254,1.037,0.38,1.499l0.483,1.646H200.267L200.267,83.798z M201.454,77.471l-1.003,1.451h1.384l1.439-1.451H201.454
			L201.454,77.471z M205.479,86.751c0.438,0.242,1.314,0.483,2.201,0.483c2.133,0,3.125-1.106,3.125-2.409
			c0-1.106-0.635-1.821-2.006-2.328c-1.015-0.393-1.441-0.612-1.441-1.107c0-0.393,0.368-0.749,1.129-0.749
			c0.749,0,1.314,0.219,1.615,0.368l0.392-1.406c-0.461-0.219-1.096-0.392-1.982-0.392c-1.822,0-2.939,1.003-2.939,2.329
			c0,1.141,0.854,1.855,2.144,2.315c0.936,0.324,1.305,0.611,1.305,1.085c0,0.52-0.427,0.854-1.232,0.854
			c-0.749,0-1.488-0.242-1.948-0.484L205.479,86.751z"/>
	</g>
</g>
<g>
	<g>
		<polygon fill="#231F20" points="-169.282,70.448 -160.385,70.448 -160.385,49.489 -146.833,49.489 -146.833,41.856 
			-160.384,41.856 -160.384,30.698 -144.143,30.698 -142.797,22.883 -169.281,22.883 		"/>
		<path fill="#231F20" d="M-69.634,23.035c-1.45,4.452-2.907,8.898-4.366,13.344c-1.923,5.849-3.832,11.704-5.816,17.534
			c-0.202,0.585-0.396,1.182-0.63,1.76c-0.659-2.233-1.384-4.451-2.092-6.666l-8.412-25.972h-9.587l15.395,47.473h8.47
			l16.375-47.473H-69.634z"/>
		<g>
			<path fill="#231F20" d="M-104.151,58.255c0-5.146,0-19.369,0-24.606s-2.921-12.155-14.131-12.155s-19.863,6.423-19.863,6.423
				l4.051,6.226c0,0,6.488-5.336,13.245-5.337c6.756,0.001,8.005,3.254,8.005,5.83c-0.001,2.577,0.098,6.326,0.098,6.326
				s-2.075-0.495-7.51-0.099c-11.356,0.827-19.567,6.788-19.567,16.503c0,9.717,7.214,14.331,15.218,14.331
				c8.005,0,13.342-6.424,13.342-6.424s0.396,2.076,2.569,4.15c2.174,2.074,3.655,2.372,3.655,2.372l4.348-5.633
				C-100.692,66.162-104.151,63.404-104.151,58.255z M-112.945,58.849c0,0-3.854,6.03-10.081,6.028
				c-6.226,0.001-7.608-5.426-7.41-8.399c0.249-3.768,2.668-8.697,9.585-9.388c6.917-0.692,8.103-0.001,8.103-0.001L-112.945,58.849
				z"/>
		</g>
	</g>
	<path fill="#231F20" d="M-195.677,82.23h2.169c0.122,0,0.144-0.022,0.144-0.145v-0.487c0-0.122-0.022-0.144-0.144-0.144h-2.169
		v-2.457h2.458c0.055,0,0.077,0,0.11-0.021c0.043-0.033,0.043-0.056,0.055-0.076l0.155-0.466l0.033-0.133
		c0-0.045-0.022-0.078-0.144-0.078h-3.442c-0.088-0.001-0.132,0.044-0.132,0.133v7.316c0,0.088,0.044,0.133,0.133,0.133h0.62
		c0.122,0,0.155-0.024,0.155-0.155L-195.677,82.23L-195.677,82.23z M-189.147,82.772h-1.849l0.675-2.446
		c0.077-0.3,0.188-0.786,0.233-1.052h0.022c0.054,0.311,0.166,0.71,0.254,1.052L-189.147,82.772L-189.147,82.772z M-189.556,78.344
		c-0.044-0.122-0.077-0.122-0.167-0.122h-0.652c-0.122,0-0.133,0.013-0.167,0.122l-2.214,7.206
		c-0.033,0.078-0.044,0.132-0.055,0.188c0,0.056,0.044,0.067,0.155,0.067h0.686c0.133,0,0.177-0.045,0.2-0.123l0.564-2.136h2.269
		l0.62,2.136c0.022,0.078,0.067,0.123,0.199,0.123h0.687c0.11,0,0.155-0.012,0.155-0.067c-0.01-0.055-0.032-0.109-0.054-0.188
		L-189.556,78.344L-189.556,78.344z M-182.573,84.653c-0.033-0.033-0.077-0.088-0.11-0.088c-0.078,0-0.697,0.652-1.34,0.652
		c-1.129,0-1.572-1.337-1.572-3.385c0-1.883,0.299-3.021,1.495-3.021c0.642,0,1.261,0.653,1.339,0.653
		c0.044,0,0.078-0.045,0.111-0.09l0.232-0.299c0.044-0.055,0.067-0.1,0.067-0.156c0-0.176-0.797-0.852-1.771-0.852
		c-1.926,0-2.468,1.771-2.468,3.874c0,2.291,0.664,4.02,2.545,4.02c0.973,0,1.77-0.679,1.77-0.855c0-0.054-0.021-0.099-0.066-0.155
		L-182.573,84.653L-182.573,84.653z M-176.397,78.356c0-0.088-0.044-0.133-0.133-0.133h-0.642c-0.088,0-0.133,0.045-0.133,0.133
		v5.39c0,1.007-0.498,1.471-1.516,1.471c-1.041,0-1.395-0.563-1.395-1.471v-5.39c0-0.088-0.044-0.133-0.132-0.133h-0.642
		c-0.088,0-0.133,0.045-0.133,0.133v5.412c0,1.339,0.619,2.194,2.291,2.194c1.693,0,2.435-0.867,2.435-2.194V78.356L-176.397,78.356
		z M-173.542,85.031v-6.675c0-0.088-0.043-0.133-0.132-0.133h-0.642c-0.088,0-0.133,0.045-0.133,0.133v7.316
		c0,0.088,0.044,0.131,0.133,0.131h3.342c0.077,0,0.144-0.031,0.177-0.121l0.155-0.422c0.011-0.053,0.044-0.099,0.044-0.144
		c0-0.064-0.055-0.087-0.132-0.087L-173.542,85.031L-173.542,85.031z M-168.584,85.031v-6.033h0.61c1.294,0,1.991,0.477,1.991,2.899
		c0,1.894-0.331,3.134-1.915,3.134H-168.584L-168.584,85.031z M-169.358,78.222c-0.088,0-0.133,0.045-0.133,0.134v7.315
		c0,0.088,0.043,0.131,0.133,0.131h1.272c2.258,0,3.1-1.227,3.1-3.862c0-3.353-1.439-3.719-2.977-3.719L-169.358,78.222
		L-169.358,78.222z M-160.636,82.772h-1.849l0.675-2.446c0.076-0.3,0.188-0.786,0.233-1.052h0.021
		c0.056,0.311,0.167,0.71,0.254,1.052L-160.636,82.772L-160.636,82.772z M-161.046,78.344c-0.044-0.122-0.077-0.122-0.167-0.122
		h-0.653c-0.121,0-0.132,0.013-0.166,0.122l-2.213,7.206c-0.034,0.078-0.045,0.132-0.055,0.188c0,0.056,0.043,0.067,0.154,0.067
		h0.686c0.133,0,0.177-0.045,0.199-0.123l0.564-2.136h2.269l0.62,2.136c0.021,0.078,0.066,0.123,0.199,0.123h0.686
		c0.11,0,0.155-0.012,0.155-0.067c-0.011-0.055-0.033-0.109-0.055-0.188L-161.046,78.344L-161.046,78.344z M-156.475,85.031v-6.033
		h0.609c1.294,0,1.992,0.477,1.992,2.899c0,1.894-0.332,3.134-1.915,3.134H-156.475L-156.475,85.031z M-157.25,78.222
		c-0.088,0-0.133,0.045-0.133,0.134v7.315c0,0.088,0.044,0.131,0.133,0.131h1.272c2.258,0,3.099-1.227,3.099-3.862
		c0-3.353-1.439-3.719-2.977-3.719L-157.25,78.222L-157.25,78.222z M-147.554,85.151c0-0.078-0.045-0.121-0.134-0.121h-2.656v-2.8
		h2.169c0.122,0,0.144-0.022,0.144-0.145v-0.487c0-0.122-0.022-0.144-0.144-0.144h-2.169v-2.457h2.457c0.1,0,0.133,0,0.165-0.098
		l0.155-0.466c0.011-0.045,0.033-0.111,0.033-0.146c0-0.032-0.022-0.065-0.143-0.065h-3.443c-0.088,0-0.133,0.045-0.133,0.133v7.316
		c0,0.088,0.044,0.131,0.133,0.131h3.41c0.121,0,0.155-0.022,0.155-0.153V85.151L-147.554,85.151z M-141.921,85.031v-6.033h0.609
		c1.294,0,1.992,0.477,1.992,2.899c0,1.894-0.332,3.134-1.915,3.134H-141.921L-141.921,85.031z M-142.696,78.222
		c-0.088,0-0.133,0.045-0.133,0.134v7.315c0,0.088,0.045,0.131,0.133,0.131h1.273c2.257,0,3.098-1.227,3.098-3.862
		c0-3.353-1.439-3.719-2.977-3.719L-142.696,78.222L-142.696,78.222z M-133.001,85.151c0-0.078-0.044-0.121-0.134-0.121h-2.655v-2.8
		h2.169c0.122,0,0.144-0.022,0.144-0.145v-0.487c0-0.122-0.022-0.144-0.144-0.144h-2.169v-2.457h2.457c0.099,0,0.133,0,0.166-0.098
		l0.155-0.466c0.011-0.045,0.035-0.111,0.035-0.146c0-0.032-0.022-0.065-0.145-0.065h-3.442c-0.088,0-0.132,0.045-0.132,0.133v7.316
		c0,0.088,0.044,0.131,0.132,0.131h3.409c0.123,0,0.156-0.022,0.156-0.153L-133.001,85.151L-133.001,85.151z M-125.375,82.772
		h-1.848l0.675-2.446c0.076-0.3,0.188-0.786,0.232-1.052h0.021c0.056,0.311,0.167,0.71,0.255,1.052L-125.375,82.772L-125.375,82.772
		z M-125.784,78.344c-0.044-0.122-0.077-0.122-0.166-0.122h-0.653c-0.122,0-0.132,0.013-0.166,0.122l-2.213,7.206
		c-0.034,0.078-0.045,0.132-0.056,0.188c0,0.056,0.044,0.067,0.156,0.067h0.686c0.133,0,0.178-0.045,0.199-0.123l0.565-2.136h2.268
		l0.62,2.136c0.022,0.078,0.066,0.123,0.199,0.123h0.686c0.11,0,0.155-0.012,0.155-0.067c-0.011-0.055-0.034-0.109-0.055-0.188
		L-125.784,78.344L-125.784,78.344z M-121.325,81.631v-2.634h0.853c0.631,0,1.428,0.033,1.428,1.263c0,1.183-0.742,1.371-1.56,1.371
		H-121.325L-121.325,81.631z M-119.597,82.272c0.608-0.197,1.46-0.817,1.46-2.034c0-1.96-1.394-2.015-2.247-2.015h-1.715
		c-0.088,0-0.133,0.045-0.133,0.133v7.316c0,0.088,0.044,0.133,0.133,0.133h0.642c0.088,0,0.133-0.045,0.133-0.133v-3.32h0.798
		l1.825,3.521c0.034,0.077,0.087,0.099,0.165,0.089l0.697-0.133c0.078-0.013,0.124-0.049,0.124-0.081s-0.024-0.076-0.045-0.12
		L-119.597,82.272L-119.597,82.272z M-112.947,78.996c0.078,0,0.144-0.033,0.177-0.121l0.156-0.421
		c0.012-0.057,0.044-0.099,0.044-0.145c0-0.066-0.054-0.088-0.132-0.088h-4.339c-0.12,0-0.154,0.065-0.154,0.144v0.5
		c0,0.087,0.043,0.131,0.133,0.131h1.647v6.675c0,0.088,0.045,0.133,0.133,0.133h0.643c0.088,0,0.132-0.045,0.132-0.133v-6.675
		H-112.947L-112.947,78.996z M-107.788,85.151c0-0.078-0.045-0.121-0.135-0.121h-2.657v-2.8h2.172c0.123,0,0.144-0.022,0.144-0.145
		v-0.487c0-0.122-0.021-0.144-0.144-0.144h-2.172v-2.457h2.458c0.099,0,0.132,0,0.165-0.098l0.156-0.466
		c0.012-0.045,0.033-0.111,0.033-0.146c0-0.032-0.021-0.065-0.144-0.065h-3.443c-0.087,0-0.132,0.045-0.132,0.133v7.316
		c0,0.088,0.044,0.131,0.132,0.131h3.411c0.121,0,0.154-0.022,0.154-0.153v-0.499H-107.788z M-102.928,78.797
		c0.011-0.043,0.044-0.099,0.044-0.132s-0.033-0.088-0.089-0.122c-0.154-0.078-0.863-0.477-1.748-0.477
		c-1.151,0-2.203,0.709-2.203,1.98c0,2.292,3.231,2.015,3.231,3.852c0,0.741-0.487,1.262-1.316,1.262
		c-0.775,0-1.451-0.364-1.673-0.465c-0.055-0.032-0.11-0.056-0.155-0.056c-0.066,0-0.087,0.056-0.121,0.146l-0.145,0.365
		c-0.011,0.044-0.043,0.1-0.043,0.132c0,0.056,0.032,0.1,0.087,0.123c0.166,0.078,0.985,0.556,2.016,0.556
		c1.349,0,2.347-0.823,2.347-2.172c0-0.731-0.3-1.251-0.898-1.738c-0.883-0.73-2.334-0.94-2.334-2.103
		c0-0.741,0.51-1.083,1.172-1.083c0.633,0,1.195,0.274,1.406,0.385c0.055,0.035,0.111,0.056,0.155,0.056
		c0.078,0,0.078-0.056,0.123-0.145L-102.928,78.797L-102.928,78.797z M-93.766,78.533c0.012-0.046,0.033-0.1,0.033-0.122
		c0-0.067-0.099-0.089-0.132-0.101l-0.61-0.153c-0.033-0.014-0.065-0.014-0.099-0.014c-0.053,0-0.066,0.066-0.1,0.178l-1.403,5.799
		c-0.045,0.167-0.133,0.587-0.167,0.864h-0.023c-0.031-0.288-0.1-0.674-0.154-0.885l-1.396-5.777
		c-0.02-0.111-0.044-0.178-0.097-0.178c-0.033,0-0.066,0-0.1,0.013l-0.609,0.154c-0.033,0.012-0.132,0.021-0.132,0.088
		c0,0.034,0.02,0.088,0.032,0.134l1.915,7.227c0.022,0.101,0.044,0.124,0.165,0.124h0.775c0.111,0,0.133-0.012,0.165-0.124
		L-93.766,78.533L-93.766,78.533z M-89.836,85.216c0-0.087-0.045-0.131-0.133-0.131h-1.009v-6.144h1.009
		c0.087,0,0.133-0.043,0.133-0.132v-0.454c0-0.088-0.045-0.133-0.133-0.133h-2.921c-0.09,0-0.133,0.045-0.133,0.133v0.454
		c0,0.089,0.043,0.132,0.133,0.132h1.006v6.144h-1.006c-0.09,0-0.133,0.044-0.133,0.131v0.455c0,0.088,0.043,0.131,0.133,0.131
		h2.921c0.087,0,0.133-0.043,0.133-0.131V85.216L-89.836,85.216z M-85.1,78.797c0.011-0.043,0.044-0.099,0.044-0.132
		s-0.034-0.088-0.088-0.122c-0.155-0.078-0.863-0.477-1.749-0.477c-1.15,0-2.202,0.709-2.202,1.98c0,2.292,3.232,2.015,3.232,3.852
		c0,0.741-0.486,1.262-1.32,1.262c-0.774,0-1.45-0.364-1.67-0.465c-0.054-0.032-0.11-0.056-0.155-0.056
		c-0.066,0-0.089,0.056-0.122,0.146l-0.145,0.365c-0.01,0.044-0.045,0.1-0.045,0.132c0,0.056,0.035,0.1,0.088,0.123
		c0.165,0.078,0.985,0.556,2.015,0.556c1.351,0,2.347-0.823,2.347-2.172c0-0.731-0.3-1.251-0.896-1.738
		c-0.887-0.73-2.336-0.94-2.336-2.103c0-0.741,0.51-1.083,1.174-1.083c0.629,0,1.194,0.274,1.404,0.385
		c0.055,0.035,0.112,0.056,0.155,0.056c0.078,0,0.078-0.056,0.123-0.145L-85.1,78.797L-85.1,78.797z M-78.814,78.356
		c0-0.088-0.045-0.133-0.131-0.133h-0.644c-0.088,0-0.131,0.045-0.131,0.133v5.39c0,1.007-0.5,1.471-1.518,1.471
		c-1.042,0-1.396-0.563-1.396-1.471v-5.39c0-0.088-0.043-0.133-0.133-0.133h-0.64c-0.088,0-0.135,0.045-0.135,0.133v5.412
		c0,1.339,0.621,2.194,2.292,2.194c1.692,0,2.435-0.867,2.435-2.194V78.356L-78.814,78.356z M-74.321,82.772h-1.849l0.676-2.446
		c0.077-0.3,0.188-0.786,0.231-1.052h0.021c0.057,0.311,0.168,0.71,0.255,1.052L-74.321,82.772L-74.321,82.772z M-74.73,78.344
		c-0.044-0.122-0.078-0.122-0.165-0.122h-0.653c-0.122,0-0.132,0.013-0.165,0.122l-2.214,7.206
		c-0.033,0.078-0.043,0.132-0.055,0.188c0,0.056,0.043,0.067,0.155,0.067h0.687c0.131,0,0.177-0.045,0.199-0.123l0.563-2.136h2.269
		l0.621,2.136c0.022,0.078,0.066,0.123,0.199,0.123h0.686c0.111,0,0.155-0.012,0.155-0.067c-0.011-0.055-0.031-0.109-0.054-0.188
		L-74.73,78.344L-74.73,78.344z M-68.498,85.216c0-0.087-0.045-0.131-0.133-0.131h-1.006v-6.144h1.006
		c0.088,0,0.133-0.043,0.133-0.132v-0.454c0-0.088-0.045-0.133-0.133-0.133h-2.921c-0.089,0-0.131,0.045-0.131,0.133v0.454
		c0,0.089,0.042,0.132,0.131,0.132h1.008v6.144h-1.008c-0.089,0-0.131,0.044-0.131,0.131v0.455c0,0.088,0.042,0.131,0.131,0.131
		h2.921c0.088,0,0.133-0.043,0.133-0.131V85.216L-68.498,85.216z M-63.761,78.797c0.011-0.043,0.046-0.099,0.046-0.132
		s-0.035-0.088-0.089-0.122c-0.155-0.078-0.863-0.477-1.749-0.477c-1.152,0-2.203,0.709-2.203,1.98c0,2.292,3.233,2.015,3.233,3.852
		c0,0.741-0.488,1.262-1.319,1.262c-0.772,0-1.45-0.364-1.67-0.465c-0.055-0.032-0.111-0.056-0.155-0.056
		c-0.067,0-0.089,0.056-0.123,0.146l-0.144,0.365c-0.01,0.044-0.042,0.1-0.042,0.132c0,0.056,0.033,0.1,0.087,0.123
		c0.166,0.078,0.986,0.556,2.014,0.556c1.352,0,2.347-0.823,2.347-2.172c0-0.731-0.298-1.251-0.896-1.738
		c-0.886-0.73-2.335-0.94-2.335-2.103c0-0.741,0.509-1.083,1.174-1.083c0.63,0,1.195,0.274,1.405,0.385
		c0.055,0.035,0.11,0.056,0.155,0.056c0.078,0,0.078-0.056,0.121-0.145L-63.761,78.797L-63.761,78.797z M-50.923,78.356
		c0-0.088-0.045-0.133-0.133-0.133h-0.642c-0.088,0-0.133,0.045-0.133,0.133v5.39c0,1.007-0.499,1.471-1.515,1.471
		c-1.042,0-1.396-0.563-1.396-1.471v-5.39c0-0.088-0.045-0.133-0.133-0.133h-0.64c-0.09,0-0.133,0.045-0.133,0.133v5.412
		c0,1.339,0.617,2.194,2.29,2.194c1.692,0,2.435-0.867,2.435-2.194V78.356L-50.923,78.356z M-48.046,82.23h2.171
		c0.121,0,0.145-0.022,0.145-0.145v-0.487c0-0.122-0.023-0.144-0.145-0.144h-2.171v-2.457h2.458c0.055,0,0.079,0,0.111-0.021
		c0.043-0.033,0.043-0.056,0.055-0.076l0.155-0.466l0.034-0.133c0-0.045-0.024-0.078-0.145-0.078h-3.443
		c-0.087,0-0.132,0.045-0.132,0.133v7.316c0,0.088,0.045,0.133,0.132,0.133h0.619c0.123,0,0.156-0.024,0.156-0.155V82.23
		L-48.046,82.23z M-40.11,82.096c0-0.087-0.045-0.133-0.132-0.133h-1.662c-0.087,0-0.132,0.047-0.132,0.133v0.454
		c0,0.087,0.046,0.134,0.132,0.134h0.887v2.323c-0.211,0.099-0.51,0.209-1.019,0.209c-1.207,0-1.682-1.338-1.682-3.385
		c0-1.871,0.485-3.021,1.705-3.021c0.885,0,1.339,0.541,1.451,0.541c0.054,0,0.11-0.077,0.143-0.154l0.166-0.311
		c0.033-0.066,0.053-0.099,0.053-0.143c0-0.155-0.818-0.676-1.836-0.676c-1.948,0-2.678,1.771-2.678,3.874
		c0,2.291,0.697,4.02,2.656,4.02c0.675,0,1.384-0.182,1.792-0.411c0.157-0.09,0.157-0.178,0.157-0.465v-2.989H-40.11z"/>
	<polygon fill="#231F20" points="-59.362,76.874 -59.823,76.874 -59.823,87.125 -59.362,87.125 	"/>
</g>
</svg>
