<?xml version="1.0" encoding="utf-8"?>
<!-- Generator: Adobe Illustrator 16.0.4, SVG Export Plug-In . SVG Version: 6.00 Build 0)  -->
<!DOCTYPE svg PUBLIC "-//W3C//DTD SVG 1.1//EN" "http://www.w3.org/Graphics/SVG/1.1/DTD/svg11.dtd">
<svg version="1.1" id="Layer_1" xmlns="http://www.w3.org/2000/svg" xmlns:xlink="http://www.w3.org/1999/xlink" x="0px" y="0px"
	 width="755.464px" height="353.573px" viewBox="0 0 755.464 353.573" enable-background="new 0 0 755.464 353.573"
	 xml:space="preserve">
<path fill="#231F20" d="M713.035,243.184h37.153V48.695h-37.153V243.184z M650.36,200.182c0,2.248-0.284,4.497-0.852,6.464
	c-2.553,8.151-9.359,11.805-15.314,11.805c-5.672,0-13.33-5.059-13.33-18.83c0-19.111,17.018-23.047,29.496-23.327V200.182z
	 M686.661,160.553c0-27.824-6.808-57.053-49.063-57.053c-19.286,0-35.45,5.902-43.108,10.399l6.807,24.732
	c8.226-5.059,17.3-7.869,28.36-7.869c13.047,0,19.568,7.869,19.568,18.549v3.092c-31.479,0.281-63.526,15.176-63.526,51.151
	c0,24.451,15.598,41.924,36.585,41.924c12.194,0,22.972-5.106,30.629-15.786h0.567l1.985,13.491h33.464
	c-1.7-9.275-2.268-20.518-2.268-31.479V160.553z M566.697,105.749h-37.153v87.688c0,4.777-0.851,8.993-2.268,11.805
	c-1.703,4.496-5.674,9.274-11.912,9.274c-10.494,0-13.896-11.523-13.896-29.511v-79.256h-37.436v83.191
	c0,37.099,10.777,56.539,37.152,56.539c14.18,0,25.523-7.636,32.047-16.91h0.567l1.984,14.615h32.048
	c-0.567-12.93-1.134-27.263-1.134-41.878V105.749z M365.338,237c6.523,4.777,20.137,7.916,31.765,7.916
	c28.643,0,49.062-15.224,49.062-43.329c0-15.739-7.657-30.073-28.077-41.595c-13.046-7.589-16.165-10.962-16.165-17.145
	s4.537-11.804,13.896-11.804c7.373,0,13.896,2.529,19.285,5.621l6.523-26.981c-7.375-3.372-16.449-6.183-28.077-6.183
	c-27.794,0-45.661,18.549-45.661,43.282c0,12.647,5.389,26.981,28.077,39.629c12.195,7.025,16.166,11.522,16.166,18.549
	c0,8.15-5.389,12.366-15.03,12.366c-9.359,0-19.57-3.935-24.958-7.308L365.338,237z M327.902,86.637
	c12.196,0,21.838-9.275,21.838-22.484c0-14.053-9.642-22.766-21.554-22.766c-11.628,0-21.554,8.712-21.271,22.766
	c-0.284,13.209,9.075,22.484,20.703,22.484H327.902z M347.188,243.184V105.749h-37.153v137.435H347.188z M186.385,105.749
	l37.719,137.435h34.316l37.153-137.435h-36.585l-10.777,61.27c-1.985,12.928-3.687,24.452-5.389,38.503h-0.567
	c-1.985-13.771-3.969-26.138-5.955-38.503l-10.494-61.27H186.385z"/>
<path fill="#F7983A" d="M663.693,65.252c0,0.969-0.121,1.937-0.364,2.785c-1.089,3.51-3.994,5.084-6.536,5.084
	c-2.422,0-5.69-2.179-5.69-8.111c0-8.232,7.264-9.927,12.591-10.048V65.252z M679.189,48.183c0-11.985-2.905-24.576-20.944-24.576
	c-8.231,0-15.132,2.542-18.401,4.479l2.905,10.653c3.511-2.179,7.385-3.389,12.106-3.389c5.569,0,8.354,3.389,8.354,7.99v1.331
	c-13.438,0.121-27.118,6.537-27.118,22.033c0,10.532,6.658,18.058,15.617,18.058c5.206,0,9.807-2.198,13.074-6.799h0.242
	l0.848,5.811h14.286c-0.728-3.995-0.969-8.837-0.969-13.558V48.183z M600.76,83.774h15.979V53.751c0-2.542,0.243-4.601,0.606-5.932
	c1.815-6.174,6.295-8.474,9.684-8.474c1.332,0,2.422,0,3.391,0.242V23.849c-0.969-0.242-1.816-0.242-3.391-0.242
	c-4.357,0-9.079,3.269-11.742,9.564h-0.362l-0.849-8.596h-13.801c0.242,5.448,0.484,11.864,0.484,17.796V83.774z M586.613,24.575
	h-15.859v37.772c0,2.058-0.362,3.874-0.968,5.084c-0.727,1.937-2.422,3.995-5.085,3.995c-4.479,0-5.932-4.963-5.932-12.711v-34.14
	h-15.981V60.41c0,15.98,4.602,24.353,15.86,24.353c6.053,0,10.896-3.288,13.68-7.283h0.242l0.847,6.295h13.681
	c-0.242-5.568-0.484-11.742-0.484-18.038V24.575z M505.521,14.043v10.532h-7.021v11.259h7.021V63.8
	c0,9.321,1.816,13.801,5.085,16.948c2.784,2.664,6.779,3.773,11.38,3.773c4.236,0,7.506-0.484,9.685-1.11l-0.121-12.349
	c-1.332,0.242-2.542,0.363-4.116,0.363c-3.147,0-6.053-1.695-6.053-8.595V35.834h11.621V24.575H521.38V9.08L505.521,14.043z
	 M472.853,83.774h15.858V0h-15.858V83.774z M458.585,24.575h-15.859v37.772c0,2.058-0.362,3.874-0.968,5.084
	c-0.727,1.937-2.422,3.995-5.085,3.995c-4.479,0-5.933-4.963-5.933-12.711v-34.14h-15.979V60.41c0,15.98,4.601,24.353,15.858,24.353
	c6.054,0,10.896-3.288,13.681-7.283h0.242l0.847,6.295h13.681c-0.242-5.568-0.484-11.742-0.484-18.038V24.575z M404.73,70.337
	c-1.694,0.847-3.632,1.21-5.932,1.21c-7.385,0-11.864-6.537-11.864-17.312c0-10.291,4.479-17.554,12.106-17.554
	c2.664,0,4.601,0.605,5.932,1.09l2.059-12.469c-1.574-0.727-4.964-1.574-8.717-1.574c-16.343,0-27.118,12.711-27.118,30.992
	c0,19.371,9.806,29.802,24.818,29.802c4.479,0,8.475-0.989,10.048-1.715L404.73,70.337z"/>
<path fill="#231F20" d="M741.438,331.238c-6.089,0-7.324-9.613-7.324-16.671c0-6.529,1.146-16.586,7.235-16.586
	c5.999,0,7.146,10.057,7.146,16.586c0,6.614-1.146,16.671-6.969,16.671H741.438z M741.349,336.635
	c6.439,0,14.115-5.573,14.115-22.067c0-14.91-6.178-22.054-13.764-22.054c-7.32,0-14.29,6.528-14.29,22.142
	c0,14.996,6.174,21.979,13.85,21.979H741.349z M713.029,322.505c0,0.707,0,1.588-0.175,2.383c-0.795,4.234-3.352,6.439-6.351,6.439
	c-2.382,0-5.205-2.03-5.205-7.587c0-9.262,8.204-9.88,11.73-9.88V322.505z M719.735,307.775c0-9.617-3.706-15.262-12.263-15.262
	c-4.234,0-8.204,1.498-9.968,2.822l1.501,4.765c2.027-1.324,4.409-2.205,7.055-2.205c5.382,0,6.794,3.969,6.794,9.703v1.323
	c-9.616,0.086-18.173,4.851-18.173,15.525c0,7.32,4.41,12.188,10.146,12.188c3.614,0,6.614-1.956,8.467-5.219h0.267l0.44,4.498
	h6.174c-0.44-2.733-0.44-6.439-0.44-9.702V307.775z M702.534,286.954c0.175-2.382,0.793-3.614,2.116-3.614
	c1.059,0,2.205,0.703,3.44,1.498c1.146,0.707,2.646,1.588,4.321,1.588c3.794,0,5.381-3.086,5.381-7.409h-3.351
	c-0.178,2.559-0.97,3.263-2.294,3.263c-1.146,0-2.204-0.792-3.439-1.499c-1.236-0.706-2.472-1.587-4.324-1.587
	c-3.614,0-5.379,3.617-5.379,7.761H702.534z M690.535,329.562c-1.321,0.795-3.174,1.235-4.938,1.235
	c-6.263,0-10.058-5.999-10.058-15.968c0-8.379,3.089-16.494,9.881-16.494c2.204,0,3.969,0.706,4.853,1.146l1.324-5.56
	c-1.235-0.703-3.706-1.32-6-1.32c-10.675,0-16.849,9.965-16.849,22.228c0,12.277,4.676,19.408,11.996,21.084l-3.085,7.117
	c3.439,0.352,5.996,1.424,5.996,3.821c0,2.134-1.499,2.748-3.174,2.748c-1.676,0-3-0.44-4.413-1.336l-1.409,3.703
	c1.587,0.898,3.703,1.605,5.91,1.605c3.881,0,8.027-1.942,8.027-6.969c0-3.354-2.822-5.823-5.733-6.267l1.938-3.88
	c2.648-0.089,5.205-0.81,6.795-1.69L690.535,329.562z M654.366,322.505c0,0.707,0,1.588-0.174,2.383
	c-0.795,4.234-3.352,6.439-6.352,6.439c-2.382,0-5.204-2.03-5.204-7.587c0-9.262,8.204-9.88,11.729-9.88V322.505z M661.072,307.775
	c0-9.617-3.706-15.262-12.262-15.262c-4.235,0-8.204,1.498-9.969,2.822l1.501,4.765c2.028-1.324,4.41-2.205,7.055-2.205
	c5.382,0,6.795,3.969,6.795,9.703v1.323c-9.617,0.086-18.173,4.851-18.173,15.525c0,7.32,4.409,12.188,10.146,12.188
	c3.615,0,6.614-1.956,8.468-5.219h0.266l0.44,4.498h6.174c-0.44-2.733-0.44-6.439-0.44-9.702V307.775z M628.962,293.22h-6.795
	v28.139c0,1.413-0.086,2.734-0.352,3.881c-0.352,1.941-2.116,5.647-6.085,5.647c-4.676,0-5.736-4.941-5.736-11.645V293.22h-6.792
	v26.992c0,10.586,2.911,16.423,10.409,16.423c4.587,0,7.853-3.103,9.174-5.219h0.177l0.44,4.498h5.911
	c-0.089-3.177-0.352-6.88-0.352-11.645V293.22z M587.148,320.83c0,1.058-0.089,2.03-0.264,2.822
	c-1.501,6.177-4.412,7.323-6.528,7.323c-4.941,0-7.234-7.235-7.234-16.231c0-8.559,1.941-16.408,7.586-16.408
	c3.266,0,5.911,3.881,6.352,8.29c0.089,0.973,0.089,1.941,0.089,2.825V320.83z M587.148,274.87v22.759h-0.178
	c-1.676-3.617-4.676-5.115-7.761-5.115c-6.617,0-12.88,7.058-12.88,22.23c0,14.023,5.204,21.891,12.439,21.891
	c4.498,0,7.498-3.014,8.907-6.103h0.267l0.44,5.382h5.822c-0.089-2.471-0.352-7.32-0.352-10.231V274.87H587.148z M551.949,322.505
	c0,0.707,0,1.588-0.175,2.383c-0.795,4.234-3.352,6.439-6.351,6.439c-2.383,0-5.205-2.03-5.205-7.587c0-9.262,8.204-9.88,11.73-9.88
	V322.505z M558.655,307.775c0-9.617-3.707-15.262-12.263-15.262c-4.235,0-8.204,1.498-9.969,2.822l1.502,4.765
	c2.027-1.324,4.409-2.205,7.054-2.205c5.383,0,6.795,3.969,6.795,9.703v1.323c-9.617,0.086-18.173,4.851-18.173,15.525
	c0,7.32,4.409,12.188,10.146,12.188c3.615,0,6.615-1.956,8.468-5.219h0.267l0.439,4.498h6.174c-0.439-2.733-0.439-6.439-0.439-9.702
	V307.775z M514.637,335.914h6.791v-23.641c0-1.413,0.089-2.736,0.267-3.883c0.706-4.939,3.88-8.908,8.204-8.908
	c0.529,0,0.97,0,1.41,0.089v-6.969c-0.44,0-0.881-0.089-1.41-0.089c-3.972,0-7.587,3.352-8.999,7.409h-0.178l-0.352-6.703h-6.085
	c0.086,3.174,0.352,7.409,0.352,11.026V335.914z M498.582,320.359c0,1.235-0.088,2.571-0.439,3.896
	c-1.413,5.131-4.058,6.103-6.089,6.103c-4.146,0-7.586-4.956-7.586-15.924c0-9.469,2.647-16.098,7.586-16.098
	c3.884,0,5.382,3.632,6.177,6.543c0.264,0.881,0.352,2.042,0.352,3.101V320.359z M505.285,306.555
	c0-6.543,0.267-10.338,0.355-13.335h-6.089l-0.352,4.851h-0.177c-1.235-2.557-3.353-5.557-7.938-5.557
	c-6.263,0-13.409,6.528-13.409,22.272c0,12.558,4.938,21.128,12.525,21.128c3.617,0,6.706-1.853,8.204-5.204h0.177v4.323
	c0,9.658-3.351,12.98-8.732,12.98c-3.44,0-6.263-0.955-7.938-1.838l-1.59,5.278c2.207,1.235,5.736,2.119,9.351,2.119
	c4.764,0,8.822-1.679,11.381-4.587c2.823-3.074,4.232-7.279,4.232-18.454V306.555z M452.797,310.243v5.293h19.319v-5.293H452.797z
	 M426.6,333.973c1.851,1.501,5.293,2.485,8.468,2.485c6.969,0,12.791-4.161,12.791-12.718c0-5.91-3.881-9.791-8.822-12.968
	c-4.232-2.911-5.293-4.498-5.293-7.409c0-2.734,1.853-5.382,5.56-5.382c2.204,0,4.058,0.795,5.645,1.853l1.854-5.115
	c-1.765-1.059-4.324-2.205-7.676-2.205c-6.617,0-11.733,4.938-11.733,11.818c0,4.941,3,8.56,8.56,12.174
	c4.32,2.911,5.468,5.119,5.468,8.382c0,3.791-2.383,6.174-6.263,6.174c-2.734,0-5.382-1.232-6.881-2.205L426.6,333.973z
	 M407.81,331.238c-6.089,0-7.324-9.613-7.324-16.671c0-6.529,1.146-16.586,7.235-16.586c5.999,0,7.146,10.057,7.146,16.586
	c0,6.614-1.146,16.671-6.968,16.671H407.81z M407.721,336.635c6.439,0,14.115-5.573,14.115-22.067
	c0-14.91-6.177-22.054-13.764-22.054c-7.32,0-14.29,6.528-14.29,22.142c0,14.996,6.175,21.979,13.85,21.979H407.721z
	 M411.689,276.456l-6.791,11.911h4.498l9.173-11.911H411.689z M367.142,309.362c0-1.146,0-2.205,0.178-3.266
	c0.44-3.88,3.174-7.761,6.262-7.761c5.382,0,7.498,7.409,7.498,16.231c0,8.645-1.765,16.408-7.409,16.408
	c-1.853,0-4.938-1.146-6.262-7.235c-0.267-0.969-0.267-2.204-0.267-3.528V309.362z M360.351,352.866h6.792v-21.188h0.178
	c1.146,2.383,3.44,4.956,7.409,4.956c6.706,0,13.232-6.365,13.232-22.156c0-14.026-4.938-21.965-12.349-21.965
	c-3.354,0-6.706,1.587-8.999,6.174h-0.177l-0.352-5.468h-6.085c0.086,2.997,0.352,6.792,0.352,13.32V352.866z M319.418,310.154
	c0.266-5.822,2.56-12.348,6.969-12.348c3.266,0,6.529,3.792,6.352,12.348H319.418z M339.178,315.185
	c0.089-1.058,0.089-2.204,0.089-3.795c0-9.702-3.44-18.876-12.173-18.876c-8.556,0-14.378,8.645-14.378,22.494
	c0,13.057,5.293,21.45,15.525,21.45c3.352,0,6.969-0.721,9.351-2.042l-1.058-5.03c-1.676,0.972-4.146,1.676-7.058,1.676
	c-4.938,0-10.057-2.822-10.143-15.877H339.178z M298.336,320.83c0,1.058-0.088,2.03-0.263,2.822
	c-1.501,6.177-4.413,7.323-6.529,7.323c-4.941,0-7.235-7.235-7.235-16.231c0-8.559,1.942-16.408,7.587-16.408
	c3.266,0,5.911,3.881,6.351,8.29c0.088,0.973,0.088,1.941,0.088,2.825V320.83z M298.336,274.87v22.759h-0.177
	c-1.676-3.617-4.676-5.115-7.761-5.115c-6.617,0-12.88,7.058-12.88,22.23c0,14.023,5.205,21.891,12.439,21.891
	c4.498,0,7.498-3.014,8.908-6.103h0.266l0.44,5.382h5.823c-0.089-2.471-0.352-7.32-0.352-10.231V274.87H298.336z M249.288,322.505
	c0,0.707,0,1.588-0.174,2.383c-0.795,4.234-3.351,6.439-6.351,6.439c-2.382,0-5.205-2.03-5.205-7.587c0-9.262,8.205-9.88,11.73-9.88
	V322.505z M255.994,307.775c0-9.617-3.706-15.262-12.262-15.262c-4.235,0-8.204,1.498-9.969,2.822l1.501,4.765
	c2.027-1.324,4.41-2.205,7.055-2.205c5.382,0,6.794,3.969,6.794,9.703v1.323c-9.617,0.086-18.173,4.851-18.173,15.525
	c0,7.32,4.409,12.188,10.146,12.188c3.615,0,6.614-1.956,8.467-5.219h0.266l0.44,4.498h6.174c-0.44-2.733-0.44-6.439-0.44-9.702
	V307.775z M178.718,335.914h6.703v-27.08c0-1.324,0.089-2.56,0.267-3.707c0.792-4.498,3.617-6.88,6.351-6.88
	c5.027,0,5.911,4.938,5.911,9.702v27.965h6.703v-27.436c0-1.409,0.088-2.733,0.266-3.88c0.969-3.97,3.44-6.352,6.262-6.352
	c5.205,0,6,5.382,6,10.938v26.729h6.703v-28.315c0-10.85-4.499-15.085-10.232-15.085c-2.208,0-4.235,0.529-5.911,1.676
	c-1.587,1.058-3.088,2.733-4.235,4.853h-0.177c-1.587-4.59-4.938-6.528-8.908-6.528c-4.501,0-7.764,2.557-9.617,5.996h-0.174
	l-0.354-5.29h-5.911c0.088,3.44,0.354,5.997,0.354,11.026V335.914z M162.484,322.505c0,0.707,0,1.588-0.174,2.383
	c-0.795,4.234-3.351,6.439-6.351,6.439c-2.382,0-5.205-2.03-5.205-7.587c0-9.262,8.205-9.88,11.73-9.88V322.505z M169.19,307.775
	c0-9.617-3.706-15.262-12.262-15.262c-4.235,0-8.204,1.498-9.969,2.822l1.501,4.765c2.027-1.324,4.41-2.205,7.055-2.205
	c5.382,0,6.794,3.969,6.794,9.703v1.323c-9.617,0.086-18.173,4.851-18.173,15.525c0,7.32,4.409,12.188,10.146,12.188
	c3.614,0,6.614-1.956,8.467-5.219h0.266l0.44,4.498h6.174c-0.44-2.733-0.44-6.439-0.44-9.702V307.775z M125.171,335.914h6.792
	v-23.641c0-1.413,0.089-2.736,0.266-3.883c0.707-4.939,3.88-8.908,8.205-8.908c0.529,0,0.969,0,1.41,0.089v-6.969
	c-0.44,0-0.881-0.089-1.41-0.089c-3.972,0-7.587,3.352-9,7.409h-0.177l-0.352-6.703h-6.085c0.086,3.174,0.352,7.409,0.352,11.026
	V335.914z M109.118,320.359c0,1.235-0.088,2.571-0.44,3.896c-1.413,5.131-4.058,6.103-6.088,6.103
	c-4.146,0-7.586-4.956-7.586-15.924c0-9.469,2.648-16.098,7.586-16.098c3.884,0,5.382,3.632,6.177,6.543
	c0.263,0.881,0.352,2.042,0.352,3.101V320.359z M115.821,306.555c0-6.543,0.266-10.338,0.354-13.335h-6.088l-0.352,4.851h-0.177
	c-1.235-2.557-3.352-5.557-7.938-5.557c-6.263,0-13.409,6.528-13.409,22.272c0,12.558,4.938,21.128,12.525,21.128
	c3.618,0,6.706-1.853,8.205-5.204h0.177v4.323c0,9.658-3.352,12.98-8.733,12.98c-3.44,0-6.263-0.955-7.938-1.838l-1.59,5.278
	c2.208,1.235,5.736,2.119,9.351,2.119c4.764,0,8.822-1.679,11.381-4.587c2.823-3.074,4.232-7.279,4.232-18.454V306.555z
	 M68.451,331.238c-6.088,0-7.323-9.613-7.323-16.671c0-6.529,1.146-16.586,7.235-16.586c6,0,7.146,10.057,7.146,16.586
	c0,6.614-1.146,16.671-6.969,16.671H68.451z M68.362,336.635c6.439,0,14.115-5.573,14.115-22.067
	c0-14.91-6.176-22.054-13.763-22.054c-7.321,0-14.29,6.528-14.29,22.142c0,14.996,6.174,21.979,13.849,21.979H68.362z
	 M35.548,335.914h6.792v-23.641c0-1.413,0.089-2.736,0.266-3.883c0.707-4.939,3.88-8.908,8.204-8.908c0.529,0,0.97,0,1.41,0.089
	v-6.969c-0.44,0-0.88-0.089-1.41-0.089c-3.972,0-7.586,3.352-8.999,7.409h-0.177l-0.352-6.703h-6.085
	c0.085,3.174,0.352,7.409,0.352,11.026V335.914z M7.143,309.362c0-1.146,0-2.205,0.178-3.266c0.44-3.88,3.174-7.761,6.262-7.761
	c5.382,0,7.498,7.409,7.498,16.231c0,8.645-1.765,16.408-7.41,16.408c-1.853,0-4.938-1.146-6.262-7.235
	c-0.266-0.969-0.266-2.204-0.266-3.528V309.362z M0.352,352.866h6.792v-21.188h0.178c1.146,2.383,3.44,4.956,7.409,4.956
	c6.706,0,13.231-6.365,13.231-22.156c0-14.026-4.938-21.965-12.348-21.965c-3.354,0-6.706,1.587-8.999,6.174H6.437l-0.352-5.468H0
	c0.085,2.997,0.352,6.792,0.352,13.32V352.866z"/>
<g>
	<path fill="#F7983A" d="M141.528,83.524l-0.855-5.859h-0.244c-3.296,4.639-7.933,6.835-13.182,6.835
		c-9.032,0-15.745-7.568-15.745-18.187c0-15.624,13.793-22.092,27.341-22.214v-1.343c0-4.638-2.808-8.056-8.423-8.056
		c-4.76,0-8.665,1.22-12.205,3.418l-2.929-10.741c3.296-1.953,10.252-4.516,18.553-4.516c18.187,0,21.115,12.693,21.115,24.777
		v22.215c0,4.76,0.243,9.643,0.977,13.67H141.528z M139.331,54.475c-5.371,0.122-12.693,1.831-12.693,10.131
		c0,5.981,3.294,8.178,5.736,8.178c2.562,0,5.492-1.587,6.59-5.127c0.245-0.854,0.367-1.831,0.367-2.807V54.475z"/>
	<path fill="#F7983A" d="M166.187,41.781c0-5.981-0.245-12.45-0.489-17.942h13.916l0.853,8.666h0.367
		c2.686-6.347,7.445-9.642,11.84-9.642c1.586,0,2.441,0,3.417,0.243v15.868c-0.976-0.244-2.074-0.244-3.417-0.244
		c-3.418,0-7.935,2.32-9.764,8.544c-0.367,1.343-0.611,3.417-0.611,5.981v30.27h-16.111V41.781z"/>
	<path fill="#F7983A" d="M223.188,7.727v16.112h11.718v11.351h-11.718v27.219c0,6.957,2.929,8.666,6.103,8.666
		c1.587,0,2.808-0.122,4.148-0.366l0.123,12.45c-2.197,0.61-5.492,1.099-9.765,1.099c-4.637,0-8.666-1.099-11.474-3.784
		c-3.296-3.173-5.127-7.689-5.127-17.088V35.189h-7.078V23.838h7.078V11.511L223.188,7.727z"/>
	<path fill="#F7983A" d="M254.925,59.357c0.243,9.277,5.613,12.694,12.693,12.694c4.517,0,8.544-0.977,11.352-1.953l2.197,11.473
		c-4.151,1.587-10.376,2.686-16.479,2.686c-16.233,0-25.145-10.741-25.145-29.416c0-20.018,10.376-31.979,23.924-31.979
		c12.815,0,20.263,10.13,20.263,28.195c0,4.272-0.123,6.591-0.488,8.3H254.925z M269.205,48.128c0-7.69-1.954-13.671-6.715-13.671
		c-5.248,0-7.322,7.69-7.444,13.671H269.205z"/>
</g>
</svg>
