<?xml version="1.0" encoding="utf-8"?>
<!-- Generator: Adobe Illustrator 16.0.4, SVG Export Plug-In . SVG Version: 6.00 Build 0)  -->
<!DOCTYPE svg PUBLIC "-//W3C//DTD SVG 1.1//EN" "http://www.w3.org/Graphics/SVG/1.1/DTD/svg11.dtd">
<svg version="1.1" id="Layer_1" xmlns="http://www.w3.org/2000/svg" xmlns:xlink="http://www.w3.org/1999/xlink" x="0px" y="0px"
	 width="210.805px" height="108.264px" viewBox="0 0 210.805 108.264" enable-background="new 0 0 210.805 108.264"
	 xml:space="preserve">
<g>
	<g>
		<polygon fill-rule="evenodd" clip-rule="evenodd" fill="#007DC4" points="16.684,40.746 25.025,45.568 33.367,50.389 
			33.367,60.031 33.367,69.671 25.025,74.494 16.684,79.314 8.342,74.494 0,69.671 0,60.031 0,50.389 8.342,45.568 		"/>
		<polygon fill-rule="evenodd" clip-rule="evenodd" fill="#007DC4" points="73.507,69.662 81.856,74.487 90.208,79.312 
			90.208,88.963 90.208,98.612 81.856,103.438 73.507,108.264 65.155,103.438 56.803,98.612 56.803,88.963 56.803,79.312 
			65.155,74.487 		"/>
		<polygon fill-rule="evenodd" clip-rule="evenodd" fill="#007DC4" points="73.165,0 83.191,5.785 93.218,11.569 93.218,23.139 
			93.218,34.707 83.191,40.491 73.165,46.275 63.137,40.491 53.11,34.707 53.11,23.139 53.11,11.569 63.137,5.785 		"/>
		<polygon fill-rule="evenodd" clip-rule="evenodd" fill="#007DC4" points="86.897,42.699 93.591,46.549 100.287,50.4 
			100.287,58.104 100.287,65.804 93.591,69.656 86.897,73.507 80.202,69.656 73.507,65.804 73.507,58.104 73.507,50.4 
			80.202,46.549 		"/>
		<polygon fill-rule="evenodd" clip-rule="evenodd" fill="#007DC4" points="43.449,75.497 48.476,78.382 53.502,81.268 
			53.502,87.038 53.502,92.812 48.476,95.696 43.449,98.583 38.423,95.696 33.396,92.812 33.396,87.038 33.396,81.268 
			38.423,78.382 		"/>
		<polygon fill-rule="evenodd" clip-rule="evenodd" fill="#007DC4" points="33.399,15.684 40.074,19.537 46.749,23.388 
			46.749,31.093 46.749,38.795 40.074,42.647 33.399,46.499 26.725,42.647 20.05,38.795 20.05,31.093 20.05,23.388 26.725,19.537 		
			"/>
	</g>
	<path fill="#231F20" d="M111.877,21.906v19.13c0.008,3.621,0.551,6.598,1.627,8.913c1.078,2.323,2.629,4.044,4.666,5.155
		c2.034,1.111,4.501,1.662,7.394,1.654c2.993,0,5.555-0.561,7.69-1.696c2.129-1.137,3.758-2.858,4.893-5.173
		c1.129-2.307,1.705-5.224,1.715-8.752V21.906h-7.735v19.69c-0.008,3.044-0.551,5.3-1.627,6.767
		c-1.077,1.468-2.638,2.196-4.682,2.187c-1.976,0-3.493-0.745-4.57-2.246c-1.077-1.492-1.62-3.731-1.638-6.708v-19.69H111.877
		L111.877,21.906z M151.342,56.198h7.734V42.411h12.313v-6.31h-12.313v-7.835h13.179v-6.359h-20.913V56.198L151.342,56.198z
		 M210.449,36.609h-12.771v6.055h5.291v7.175c-0.314,0.136-0.805,0.237-1.458,0.322c-0.661,0.085-1.433,0.136-2.306,0.136
		c-1.596,0-3.054-0.254-4.377-0.746c-1.322-0.501-2.468-1.229-3.425-2.188c-0.967-0.957-1.714-2.13-2.239-3.52
		c-0.525-1.382-0.79-2.958-0.797-4.74c0.007-1.866,0.296-3.493,0.873-4.884c0.567-1.398,1.375-2.561,2.4-3.485
		c1.034-0.926,2.238-1.62,3.62-2.087c1.374-0.457,2.884-0.685,4.503-0.685c1.246,0,2.357,0.067,3.315,0.186
		c0.958,0.127,1.815,0.304,2.562,0.525c0.754,0.221,1.441,0.475,2.061,0.772l1.629-6.318c-0.561-0.248-1.306-0.483-2.23-0.73
		c-0.925-0.236-1.993-0.44-3.224-0.602c-1.229-0.153-2.577-0.237-4.062-0.246c-2.824,0-5.426,0.398-7.793,1.195
		c-2.373,0.797-4.443,1.959-6.198,3.493c-1.755,1.535-3.121,3.41-4.097,5.631c-0.976,2.231-1.475,4.774-1.5,7.641
		c0,1.678,0.187,3.281,0.567,4.799c0.374,1.519,0.917,2.926,1.637,4.224c0.712,1.288,1.595,2.441,2.63,3.443
		c1.568,1.5,3.502,2.645,5.808,3.417c2.3,0.771,5.012,1.161,8.132,1.161c1.526-0.009,3.012-0.118,4.452-0.323
		c1.442-0.202,2.765-0.448,3.97-0.746c1.212-0.295,2.221-0.584,3.027-0.864V36.609z"/>
	<g>
		<path fill-rule="evenodd" clip-rule="evenodd" fill="#231F20" d="M111.805,67.832v4.334c0,2.468,1.142,3.565,3.102,3.565
			c2.028,0,3.24-1.144,3.24-3.543v-4.356h-1.754v4.462c0,1.383-0.507,2.028-1.43,2.028c-0.887,0-1.406-0.681-1.406-2.028v-4.462
			H111.805L111.805,67.832z M123.225,75.603v-2.341c0-1.268-0.023-2.364-0.081-3.401h0.046c0.369,0.911,0.889,1.903,1.35,2.744
			l1.66,2.998h1.845v-7.771h-1.614v2.259c0,1.178,0.034,2.226,0.139,3.251h-0.023c-0.357-0.876-0.807-1.843-1.268-2.662
			l-1.614-2.848h-2.053v7.771H123.225L123.225,75.603z M131.521,67.832v7.771h1.752v-7.771H131.521L131.521,67.832z M140.623,75.603
			l2.617-7.771h-1.867l-0.992,3.321c-0.266,0.886-0.508,1.809-0.703,2.742h-0.034c-0.184-0.969-0.427-1.844-0.692-2.777
			l-0.946-3.286h-1.923l2.488,7.771H140.623L140.623,75.603z M150.636,70.888h-2.858v-1.615h3.033v-1.44h-4.785v7.771h4.945V74.16
			h-3.193v-1.844h2.858V70.888L150.636,70.888z M154.113,75.603h1.741v-3.068h0.519c0.727,0.014,1.06,0.266,1.279,1.25
			c0.219,0.96,0.415,1.6,0.53,1.818h1.798c-0.148-0.302-0.379-1.32-0.621-2.211c-0.197-0.719-0.496-1.226-1.037-1.444v-0.034
			c0.667-0.243,1.371-0.922,1.371-1.896c0-0.711-0.254-1.251-0.727-1.619c-0.553-0.45-1.36-0.624-2.514-0.624
			c-0.943,0-1.774,0.069-2.34,0.174V75.603L154.113,75.603z M155.854,69.146c0.128-0.036,0.368-0.059,0.796-0.059
			c0.806,0,1.291,0.367,1.291,1.066c0,0.678-0.52,1.114-1.395,1.114h-0.692V69.146L155.854,69.146z M162.594,75.245
			c0.439,0.241,1.314,0.486,2.202,0.486c2.132,0,3.124-1.11,3.124-2.412c0-1.107-0.635-1.82-2.006-2.328
			c-1.015-0.393-1.442-0.612-1.442-1.107c0-0.393,0.37-0.749,1.131-0.749c0.75,0,1.315,0.22,1.614,0.369l0.392-1.407
			c-0.46-0.218-1.095-0.392-1.983-0.392c-1.82,0-2.939,1.003-2.939,2.328c0,1.142,0.854,1.856,2.146,2.317
			c0.932,0.322,1.302,0.611,1.302,1.083c0,0.52-0.427,0.854-1.233,0.854c-0.749,0-1.487-0.243-1.949-0.484L162.594,75.245
			L162.594,75.245z M171.074,67.832v7.771h1.752v-7.771H171.074L171.074,67.832z M176.291,75.567
			c0.427,0.059,1.084,0.117,1.995,0.117c1.521,0,2.777-0.324,3.597-1.006c0.736-0.634,1.279-1.658,1.279-3.146
			c0-1.384-0.507-2.351-1.314-2.951c-0.737-0.564-1.705-0.808-3.193-0.808c-0.875,0-1.718,0.059-2.363,0.174V75.567L176.291,75.567z
			 M178.045,69.192c0.148-0.034,0.413-0.069,0.795-0.069c1.521,0,2.465,0.796,2.465,2.468c0,1.855-1.049,2.731-2.65,2.721
			c-0.207,0-0.461,0-0.609-0.035V69.192L178.045,69.192z M190.294,73.606l0.599,1.996h1.893l-2.423-7.771h-2.294l-2.375,7.771h1.822
			l0.541-1.996H190.294L190.294,73.606z M188.311,72.294l0.473-1.65c0.115-0.447,0.242-1.037,0.346-1.497h0.035
			c0.115,0.45,0.254,1.038,0.381,1.497l0.483,1.65H188.311L188.311,72.294z M195.766,75.567c0.426,0.059,1.083,0.117,1.993,0.117
			c1.522,0,2.779-0.324,3.597-1.006c0.738-0.634,1.281-1.658,1.281-3.146c0-1.384-0.508-2.351-1.314-2.951
			c-0.738-0.564-1.708-0.808-3.193-0.808c-0.877,0-1.719,0.059-2.363,0.174V75.567L195.766,75.567z M197.518,69.192
			c0.148-0.034,0.414-0.069,0.795-0.069c1.522,0,2.467,0.796,2.467,2.468c0,1.855-1.049,2.731-2.65,2.721
			c-0.209,0-0.463,0-0.611-0.035V69.192L197.518,69.192z M210.354,70.888h-2.858v-1.615h3.031v-1.44h-4.783v7.771h4.945V74.16
			h-3.193v-1.844h2.858V70.888z"/>
		<path fill-rule="evenodd" clip-rule="evenodd" fill="#231F20" d="M111.777,87.107h1.753v-3.124h2.788v-1.43h-2.788v-1.774h2.985
			v-1.44h-4.738V87.107L111.777,87.107z M122.138,82.394h-2.859v-1.614h3.03v-1.44h-4.782v7.769h4.945v-1.44h-3.193v-1.846h2.859
			V82.394L122.138,82.394z M123.671,87.073c0.425,0.061,1.083,0.117,1.993,0.117c1.521,0,2.783-0.318,3.597-1.004
			c0.743-0.629,1.279-1.66,1.279-3.148c0-1.383-0.51-2.348-1.313-2.951c-0.742-0.559-1.705-0.806-3.193-0.806
			c-0.877,0-1.718,0.058-2.362,0.172V87.073L123.671,87.073z M125.422,80.699c0.15-0.036,0.416-0.07,0.797-0.07
			c1.521,0,2.467,0.796,2.467,2.468c0,1.855-1.049,2.729-2.652,2.72c-0.208-0.002-0.461,0-0.611-0.034V80.699L125.422,80.699z
			 M136.316,82.394h-2.858v-1.614h3.031v-1.44h-4.784v7.769h4.945v-1.44h-3.192v-1.846h2.858V82.394L136.316,82.394z
			 M137.849,87.107h1.742v-3.065h0.519c0.725,0,1.058,0.266,1.279,1.248c0.216,0.961,0.415,1.598,0.531,1.817h1.798
			c-0.149-0.302-0.38-1.319-0.624-2.209c-0.195-0.718-0.496-1.226-1.037-1.444v-0.035c0.668-0.242,1.372-0.92,1.372-1.896
			c0-0.711-0.257-1.245-0.726-1.619c-0.558-0.445-1.361-0.622-2.514-0.622c-0.946,0-1.775,0.068-2.341,0.172V87.107L137.849,87.107z
			 M139.591,80.652c0.126-0.034,0.368-0.058,0.796-0.058c0.807,0,1.29,0.367,1.29,1.065c0,0.676-0.519,1.112-1.396,1.112h-0.69
			V80.652L139.591,80.652z M148.824,85.112l0.6,1.995h1.891l-2.421-7.769H146.6l-2.375,7.769h1.822l0.541-1.995H148.824
			L148.824,85.112z M146.842,83.798l0.473-1.646c0.127-0.446,0.242-1.038,0.346-1.499h0.034c0.115,0.45,0.245,1.04,0.381,1.499
			l0.483,1.646H146.842L146.842,83.798z M152.248,87.107h4.842v-1.476H154v-6.293h-1.752V87.107L152.248,87.107z M160.789,87.073
			c0.427,0.061,1.084,0.117,1.995,0.117c1.521,0,2.778-0.324,3.597-1.004c0.738-0.635,1.278-1.66,1.278-3.148
			c0-1.383-0.507-2.353-1.312-2.951c-0.739-0.564-1.708-0.806-3.194-0.806c-0.875,0-1.717,0.058-2.363,0.172V87.073L160.789,87.073z
			 M162.542,80.699c0.149-0.036,0.414-0.07,0.795-0.07c1.522,0,2.468,0.796,2.468,2.468c0,1.855-1.05,2.732-2.652,2.72
			c-0.207,0-0.461,0-0.61-0.034V80.699L162.542,80.699z M173.436,82.394h-2.859v-1.614h3.032v-1.44h-4.785v7.769h4.946v-1.44h-3.193
			v-1.846h2.859V82.394L173.436,82.394z M185.293,82.67h-2.894v1.372h1.199v1.625c-0.14,0.058-0.462,0.103-0.853,0.103
			c-1.441,0-2.457-0.928-2.457-2.535c0-1.69,1.119-2.524,2.583-2.524c0.853,0,1.371,0.138,1.799,0.336l0.368-1.432
			c-0.379-0.161-1.152-0.356-2.155-0.356c-2.548,0-4.427,1.475-4.438,4.068c0,1.138,0.393,2.146,1.095,2.824
			c0.716,0.681,1.741,1.04,3.158,1.04c1.026,0,2.053-0.256,2.595-0.439V82.67L185.293,82.67z M189.973,87.235
			c2.271,0,3.805-1.533,3.805-4.092c0-2.146-1.303-3.933-3.689-3.933c-2.282,0-3.779,1.74-3.779,4.069
			c0,2.213,1.358,3.955,3.652,3.955H189.973L189.973,87.235z M190.031,85.84c-1.176,0-1.881-1.142-1.881-2.605
			c0-1.453,0.682-2.629,1.892-2.629s1.867,1.2,1.867,2.595c0,1.521-0.679,2.64-1.867,2.64H190.031L190.031,85.84z M194.942,79.339
			v7.769h1.751v-7.769H194.942L194.942,79.339z M202.25,85.112l0.6,1.995h1.891l-2.422-7.769h-2.293l-2.375,7.769h1.821l0.542-1.995
			H202.25L202.25,85.112z M200.267,83.798l0.474-1.646c0.115-0.45,0.242-1.038,0.346-1.499h0.035c0.115,0.45,0.254,1.037,0.38,1.499
			l0.484,1.646H200.267L200.267,83.798z M201.454,77.471l-1.003,1.451h1.384l1.44-1.451H201.454L201.454,77.471z M205.479,86.751
			c0.437,0.242,1.314,0.484,2.201,0.484c2.133,0,3.125-1.107,3.125-2.41c0-1.106-0.635-1.821-2.006-2.328
			c-1.015-0.392-1.441-0.612-1.441-1.107c0-0.393,0.368-0.749,1.129-0.749c0.749,0,1.314,0.219,1.615,0.368l0.391-1.406
			c-0.461-0.219-1.095-0.392-1.982-0.392c-1.822,0-2.94,1.003-2.94,2.329c0,1.141,0.854,1.856,2.144,2.316
			c0.936,0.324,1.305,0.611,1.305,1.085c0,0.519-0.427,0.853-1.233,0.853c-0.749,0-1.488-0.242-1.948-0.484L205.479,86.751z"/>
	</g>
</g>
</svg>
