<?xml version="1.0" encoding="utf-8"?>
<!-- Generator: Adobe Illustrator 16.0.4, SVG Export Plug-In . SVG Version: 6.00 Build 0)  -->
<!DOCTYPE svg PUBLIC "-//W3C//DTD SVG 1.1//EN" "http://www.w3.org/Graphics/SVG/1.1/DTD/svg11.dtd">
<svg version="1.1" id="Layer_1" xmlns="http://www.w3.org/2000/svg" xmlns:xlink="http://www.w3.org/1999/xlink" x="0px" y="0px"
	 width="60px" height="60px" viewBox="0 0 60 60" enable-background="new 0 0 60 60" xml:space="preserve">

	 <filter id="dropShadow">
	     <feGaussianBlur in="SourceAlpha" stdDeviation="5" />
	     <feOffset dx="0" dy="0" />
	     <feMerge>
	         <feMergeNode />
	         <feMergeNode in="SourceGraphic" />
	     </feMerge>
	   </filter>
<path filter="url(#dropShadow)" fill="#FFFFFF" d="M51.732,55.229c-0.938,0-1.815-0.36-2.477-1.021L37.062,42.014c-3.48,2.459-7.548,3.756-11.792,3.756
	c-11.304,0-20.5-9.194-20.5-20.5s9.196-20.5,20.5-20.5c11.303,0,20.5,9.196,20.5,20.5c0,4.245-1.297,8.313-3.756,11.792
	l12.193,12.193c0.659,0.658,1.021,1.537,1.021,2.477c0,0.938-0.362,1.814-1.021,2.475C53.55,54.866,52.671,55.229,51.732,55.229
	L51.732,55.229z M25.271,11.771c-7.444,0-13.5,6.056-13.5,13.5s6.056,13.5,13.5,13.5s13.5-6.059,13.5-13.5
	S32.715,11.771,25.271,11.771z"/>
<polygon filter="url(#dropShadow)" fill="#FFFFFF" points="22.771,33.271 22.771,27.771 17.271,27.771 17.271,22.771 22.771,22.771 22.771,17.271 
	27.771,17.271 27.771,22.771 33.271,22.771 33.271,27.771 27.771,27.771 27.771,33.271 "/>
</svg>
